<svg width="11" height="12" viewBox="0 0 11 12" fill="none" xmlns="http://www.w3.org/2000/svg">
<path d="M0.627521 11.9875C0.471285 11.9875 0.327639 11.9219 0.196583 11.7906C0.0655277 11.6595 0 11.5156 0 11.3591V9.78104C0 8.88407 0.279076 8.09054 0.837229 7.40046C1.39538 6.71037 2.1141 6.27064 2.99338 6.08125C2.59457 6.36154 2.2855 6.71441 2.06617 7.13985C1.84674 7.5653 1.73702 8.02161 1.73702 8.50879V11.3598C1.73702 11.4699 1.75219 11.5796 1.78252 11.6888C1.81285 11.7981 1.86322 11.8977 1.9336 11.9875H0.627521ZM2.83165 11.9875C2.66121 11.9875 2.51387 11.9255 2.38962 11.8014C2.26528 11.6775 2.2031 11.5305 2.2031 11.3604V8.50996C2.2031 7.81103 2.4501 7.2169 2.94408 6.72758C3.43817 6.23836 4.03482 5.99375 4.73404 5.99375H7.56598C8.2652 5.99375 8.85952 6.23836 9.34894 6.72758C9.83845 7.21681 10.0832 7.81083 10.0832 8.50967V9.46823C10.0832 10.1671 9.8385 10.7617 9.34908 11.2521C8.85957 11.7424 8.26525 11.9875 7.56612 11.9875H2.83165ZM5.0454 4.7339C4.38633 4.7339 3.82735 4.50387 3.36846 4.04381C2.90967 3.58385 2.68027 3.02487 2.68027 2.36687C2.68027 1.70897 2.91025 1.15004 3.37021 0.690083C3.83026 0.230028 4.38983 0 5.0489 0C5.70797 0 6.26694 0.230028 6.72583 0.690083C7.18462 1.15004 7.41402 1.70897 7.41402 2.36687C7.41402 3.02487 7.18404 3.58385 6.72408 4.04381C6.26403 4.50387 5.70447 4.7339 5.0454 4.7339Z" fill="#231010"/>
</svg>
