<svg width="20" height="22" viewBox="0 0 20 22" fill="none" xmlns="http://www.w3.org/2000/svg">
<g clip-path="url(#clip0_15092_425)">
<path d="M0.0742188 0V22H15.3378V21.4724H15.3406V21.4696H15.3378V21.3912L12.2946 21.2921C12.1352 21.2815 11.9761 21.2764 11.8195 21.2631C9.27992 21.0149 6.99612 20.1424 5.21091 18.7477C3.18561 17.1828 1.76034 14.785 1.29308 12.2226C1.27741 12.134 1.26175 12.045 1.24882 11.9561C1.2359 11.8675 1.22258 11.7785 1.2124 11.6895C1.20731 11.6581 1.20456 11.6268 1.20182 11.5982C1.19399 11.5382 1.18616 11.4806 1.18107 11.4206C1.11566 10.7989 1.1184 10.1717 1.1889 9.55552C1.24099 9.1012 1.32716 8.64885 1.44466 8.20786C1.52299 7.92563 1.6119 7.64614 1.71608 7.3694C1.75015 7.27806 1.78658 7.18673 1.823 7.09775C1.97184 6.73477 2.14417 6.37923 2.33961 6.03702C2.38661 5.95079 2.43635 5.86729 2.48844 5.7838C2.53819 5.70031 2.59028 5.61642 2.64511 5.53293C2.69994 5.44943 2.75752 5.36555 2.81196 5.2848C2.92437 5.12291 3.04187 4.96885 3.16446 4.8148C3.22438 4.73641 3.28705 4.66075 3.35246 4.5851C3.86397 3.98418 4.45108 3.44362 5.10908 2.98657C5.19015 2.92894 5.27358 2.87406 5.357 2.81919C5.44043 2.76431 5.52659 2.71217 5.61276 2.66004C5.70676 2.60242 5.79802 2.54754 5.89476 2.49266C6.08276 2.38565 6.27585 2.28373 6.47168 2.18965C6.57077 2.14261 6.66986 2.09832 6.76935 2.05363C8.54947 1.27788 10.5591 1.05837 12.4512 1.46094C12.9733 1.56012 13.4821 1.72201 13.8162 1.83961C14.1867 1.98072 14.547 2.15829 14.782 2.28647C16.9483 3.48047 18.4492 5.78184 18.6999 8.29449C18.9427 10.4547 18.2091 12.555 16.6824 14.0516C15.205 15.4961 13.1746 16.1648 11.1074 15.883C9.65083 15.687 8.31486 14.9791 7.44027 13.9368C7.08268 13.5162 6.80342 13.0485 6.59741 12.5601C6.56881 12.4896 6.53983 12.419 6.51398 12.3484C6.46698 12.2179 6.42546 12.0846 6.38865 11.949C6.0808 10.8467 6.14582 9.66841 6.62091 8.62611C7.39601 6.82649 9.29089 5.65366 11.1309 5.82849C11.2093 5.83633 11.2849 5.84417 11.3632 5.85475C11.3945 5.85749 11.4286 5.86259 11.4599 5.86769C11.5148 5.87553 11.5696 5.88611 11.6244 5.89669C11.6793 5.90688 11.7341 5.91747 11.7889 5.9308C11.8438 5.94373 11.8959 5.95706 11.9507 5.97C13.4645 6.37218 14.8138 7.52698 14.7119 9.45713C14.6622 10.7581 13.8585 12.1948 12.3447 12.4927C12.1254 12.537 11.8802 12.5868 11.6088 12.5919C11.6045 12.5919 11.6001 12.5919 11.5958 12.5919C10.5387 12.4613 9.54155 11.8055 9.6853 10.6378C9.73504 10.2356 9.95672 9.88557 10.2936 9.67664C10.659 9.44145 11.1157 9.405 11.5778 9.5563C11.7474 9.61628 11.9276 9.52494 11.9875 9.35796C12.0423 9.18823 11.9511 9.00242 11.7838 8.94794C11.147 8.73117 10.4737 8.79898 9.94889 9.12825C9.4503 9.44694 9.18866 9.90988 9.11581 10.5053C8.94113 11.8769 9.95241 12.9944 11.581 13.1983C11.6593 13.2061 11.8359 13.2191 11.8359 13.2191L12.2644 13.2269L15.9602 13.3496V4.37538H5.01469V17.2691H19.923V0H0.0742188ZM1.13642 13.8184C1.88802 16.117 3.39397 18.1887 5.43494 19.5654C6.50771 20.2788 7.77632 20.8244 9.10994 21.1902L8.86201 21.1823L1.2641 20.9393L1.13602 20.9342V13.8184H1.13642ZM7.19665 1.17558L7.15475 1.1889C7.05565 1.2281 6.95656 1.2673 6.85982 1.30924C6.85199 1.31199 6.8469 1.31708 6.83906 1.31983C6.05612 1.65694 5.28611 2.09557 4.58385 2.60751L4.46361 2.69649C4.18436 2.90268 3.92076 3.11945 3.68851 3.33622L3.65717 3.35974C3.55299 3.45382 3.45351 3.55064 3.35716 3.64197C3.29723 3.70469 3.23692 3.76741 3.17699 3.83013C3.17699 3.83287 3.17425 3.83522 3.1719 3.83797C2.99173 4.03906 2.8194 4.24563 2.65529 4.45966C2.54563 4.60078 2.44144 4.74699 2.33961 4.89594C2.28987 4.9716 2.24052 5.0449 2.19078 5.12055C2.09404 5.27225 2.00278 5.42631 1.91426 5.5831C1.87 5.6615 1.82535 5.7399 1.78384 5.82104C1.73958 5.89944 1.70041 5.98019 1.65851 6.06133C1.6166 6.14482 1.57508 6.22871 1.53591 6.3122C1.46267 6.47409 1.39217 6.63363 1.32716 6.79788C1.27232 6.93115 1.22023 7.06443 1.17323 7.20006C1.16031 7.23416 1.14973 7.26787 1.13681 7.30197V1.06582H7.47904C7.38505 1.09992 7.2887 1.13638 7.19195 1.17009L7.19704 1.17518L7.19665 1.17558ZM14.8937 12.2826L14.2047 12.3531L14.1291 12.361C14.4268 12.0944 14.6826 11.7757 14.8937 11.423V12.2822V12.2826ZM14.8937 5.4412V7.24866C14.4342 6.43646 13.701 5.81202 12.7665 5.4412H14.8937ZM6.07962 5.4412H8.89844C8.78368 5.4855 8.66853 5.53528 8.55652 5.58741C8.36617 5.676 8.18326 5.77792 8.00858 5.89317C7.16571 6.41294 6.51555 7.12872 6.07962 7.96483V5.44159V5.4412ZM6.07962 16.2037V13.1109C6.12662 13.2077 6.17597 13.3018 6.22846 13.3958C6.24687 13.4323 6.26762 13.4664 6.28838 13.5029C6.33812 13.5891 6.39021 13.6753 6.43996 13.7588C6.44335 13.7606 6.44505 13.7623 6.44505 13.7639C6.85199 14.3962 7.37173 14.9524 7.99017 15.3966C8.45233 15.7337 8.99753 15.9998 9.60305 16.2037H6.07962ZM18.8585 16.2037H14.5443C15.9355 15.7019 17.1544 14.7721 18.047 13.4789C18.3811 12.9878 18.6497 12.468 18.8585 11.9247V16.2037ZM18.8585 6.12287C18.6995 5.67091 18.5115 5.24011 18.2843 4.83519C17.8926 4.13784 17.4046 3.50282 16.8254 2.94384C15.9562 2.10537 14.9121 1.47858 13.7194 1.06582H18.8585V6.12287Z" fill="#D2C8BC"/>
<path d="M16.7298 21.8745C16.9948 21.8745 17.2096 21.6594 17.2096 21.394C17.2096 21.1286 16.9948 20.9134 16.7298 20.9134C16.4648 20.9134 16.25 21.1286 16.25 21.394C16.25 21.6594 16.4648 21.8745 16.7298 21.8745Z" fill="#D2C8BC"/>
<path d="M18.244 20.3619C18.034 20.3619 17.8633 20.5328 17.8633 20.7429C17.8633 20.953 18.0337 21.1235 18.244 21.1235C18.4543 21.1235 18.6247 20.953 18.6247 20.7429C18.6247 20.5328 18.4543 20.3619 18.244 20.3619Z" fill="#D2C8BC"/>
<path d="M19.407 19.5547C19.2535 19.5547 19.1289 19.6798 19.1289 19.8335C19.1289 19.9871 19.2535 20.1118 19.407 20.1118C19.5605 20.1118 19.6851 19.9871 19.6851 19.8335C19.6851 19.6798 19.5605 19.5547 19.407 19.5547Z" fill="#D2C8BC"/>
</g>
<defs>
<clipPath id="clip0_15092_425">
<rect width="20" height="22" fill="white"/>
</clipPath>
</defs>
</svg>
