<svg width="11" height="13" viewBox="0 0 11 13" fill="none" xmlns="http://www.w3.org/2000/svg">
<path d="M1.15146 11.815H9.85256L6.54321 11.815L1.15146 11.815ZM5.49998 3.16953C5.77896 3.16953 6.01286 3.07265 6.20166 2.87888C6.39057 2.6851 6.48503 2.44505 6.48503 2.15872C6.48503 1.87228 6.39063 1.63287 6.20183 1.44048C6.01302 1.24809 5.77908 1.1519 5.49998 1.1519C5.221 1.1519 4.98779 1.24855 4.80034 1.44186C4.61277 1.63529 4.51899 1.87494 4.51899 2.1608C4.51899 2.44447 4.61277 2.68354 4.80034 2.87801C4.98779 3.07236 5.221 3.16953 5.49998 3.16953ZM7.34916 3.16953H8.8128C9.10529 3.16953 9.3604 3.26509 9.57814 3.45621C9.79588 3.64721 9.92298 3.89217 9.95946 4.19109L10.9862 11.6555C11.0367 12.0118 10.9487 12.3249 10.7223 12.5949C10.496 12.865 10.2061 13 9.85256 13H1.15146C0.796709 13 0.505795 12.865 0.278715 12.5949C0.0516343 12.3249 -0.0366872 12.0118 0.01375 11.6555L1.04051 4.19109C1.07699 3.89217 1.20409 3.64721 1.42183 3.45621C1.63956 3.26509 1.89603 3.16953 2.19122 3.16953H3.65486C3.56749 3.01331 3.50265 2.85322 3.46031 2.68926C3.41798 2.52541 3.39682 2.34857 3.39682 2.15872C3.39682 1.56134 3.60121 1.05224 4.01 0.631411C4.4189 0.21047 4.91556 0 5.49998 0C6.0844 0 6.58174 0.21047 6.99199 0.631411C7.40213 1.05224 7.6072 1.56134 7.6072 2.15872C7.6072 2.35007 7.58536 2.52732 7.54168 2.69047C7.498 2.85363 7.43382 3.01331 7.34916 3.16953Z" fill="#231010"/>
</svg>
