<svg width="35" height="25" viewBox="0 0 35 25" fill="none" xmlns="http://www.w3.org/2000/svg">
<g clip-path="url(#clip0_15092_430)">
<path d="M7.37831 12.0962C6.11372 12.3816 4.91356 11.2002 4.46393 9.27068C4.29463 8.54473 4.21444 7.75334 4.25762 7.24464L4.59827 7.04966C4.59827 7.49494 4.64831 7.87006 4.74838 8.29713C5.06161 9.6431 5.78884 10.3083 6.9561 10.0452C8.549 9.68561 8.66278 7.99488 7.72307 5.59776L8.15626 5.38996C8.95065 7.77696 9.75533 8.60411 11.122 8.29578C12.1077 8.07314 12.5217 7.36068 12.2434 6.16786C12.0816 5.47497 11.6937 4.6539 11.1687 3.84631L11.6039 3.55823C12.2084 4.55742 12.5292 5.32655 12.7252 6.16651C13.2832 8.5616 12.9761 10.0499 11.6032 10.3603C10.6285 10.5802 9.63538 10.0715 8.87183 8.48266C9.25498 10.5424 8.58738 11.8236 7.37831 12.0962Z" fill="#D2C8BC"/>
<path d="M19.1806 7.75794C19.3684 7.24789 19.5446 6.73312 19.7132 6.21497C19.2739 5.46743 18.9305 4.49995 18.7125 3.22887C18.4973 1.97465 18.3677 1.06856 18.2437 0.108504L17.7879 -0.000793457L15.136 3.13576C16.1244 5.8385 17.6289 9.07355 17.1086 11.1806C15.953 15.8574 9.84598 18.2255 3.13029 16.6177C2.16385 16.3863 1.1371 16.1138 0.106925 15.711L0 16.1428C1.02058 17.1015 3.7451 19.9655 6.13103 20.5369C10.8597 21.669 16.3492 17.5569 18.108 11.1657C18.3108 9.98841 18.7701 8.8752 19.182 7.75794H19.1806Z" fill="#D2C8BC"/>
<path d="M23.6077 8.72827C23.0703 8.63179 22.548 8.48674 22.0154 8.26747C21.2587 7.95644 20.9249 7.55164 20.2882 6.88641C20.1182 7.40659 19.9407 7.92339 19.7481 8.43681C19.3752 9.43263 18.9907 10.4332 18.8125 11.4836C19.3649 12.0666 19.829 12.3182 20.5445 12.6987C21.2019 13.0482 21.901 13.2283 22.6351 13.3822C23.4692 13.5576 24.2424 13.6089 25.058 13.6089L34.9999 13.5987V8.80991C34.9999 8.80991 24.167 8.82947 23.607 8.72827H23.6077Z" fill="#D2C8BC"/>
<path d="M19.8555 23.2762L28.7878 21.1537L28.4067 22.8984L19.4531 24.9993L19.8561 23.2762H19.8555Z" fill="#D2C8BC"/>
<path d="M21.3945 17.3688L23.7695 14.7605L26.8463 17.47L24.47 20.0789L21.3945 17.3688Z" fill="#D2C8BC"/>
</g>
<defs>
<clipPath id="clip0_15092_430">
<rect width="35" height="25" fill="white"/>
</clipPath>
</defs>
</svg>
