<svg width="15" height="15" viewBox="0 0 15 15" fill="none" xmlns="http://www.w3.org/2000/svg">
<path d="M7.49778 8.31316L9.8272 10.6426C9.94392 10.7593 10.0791 10.8177 10.2328 10.8177C10.3864 10.8177 10.5215 10.7586 10.6381 10.6404C10.7578 10.5222 10.8177 10.3867 10.8177 10.2339C10.8177 10.081 10.7578 9.9454 10.6381 9.8272L8.30873 7.50222L10.6381 5.1728C10.7549 5.05608 10.814 4.92089 10.8154 4.76724C10.8169 4.61358 10.7578 4.47845 10.6381 4.36186C10.5203 4.24218 10.3852 4.18234 10.2328 4.18234C10.0803 4.18234 9.94515 4.24218 9.8272 4.36186L7.49778 6.69127L5.16837 4.36186C5.05165 4.24514 4.9172 4.18604 4.76502 4.18456C4.61284 4.18308 4.47845 4.24218 4.36186 4.36186C4.24218 4.47969 4.18234 4.61481 4.18234 4.76724C4.18234 4.91966 4.24218 5.05485 4.36186 5.1728L6.68684 7.50222L4.35742 9.83163C4.2407 9.94835 4.18234 10.0828 4.18234 10.235C4.18234 10.3872 4.24144 10.5215 4.35964 10.6381C4.47784 10.7578 4.61333 10.8177 4.76613 10.8177C4.91905 10.8177 5.05461 10.7578 5.1728 10.6381L7.49778 8.31316ZM7.49834 15C6.47076 15 5.50092 14.8039 4.58883 14.4116C3.67674 14.0193 2.88008 13.4825 2.19884 12.8012C1.51748 12.1199 0.98067 11.3234 0.588402 10.4117C0.196134 9.50012 0 8.53047 0 7.50277C0 6.46288 0.196134 5.48689 0.588402 4.5748C0.98067 3.66271 1.51724 2.869 2.1981 2.19367C2.87897 1.51834 3.67533 0.983932 4.58717 0.590433C5.49902 0.196811 6.46891 0 7.49686 0C8.537 0 9.5133 0.196687 10.4258 0.590063C11.3381 0.983439 12.1319 1.51754 12.8071 2.19238C13.4821 2.86734 14.0164 3.66092 14.4098 4.57313C14.8033 5.48523 15 6.46159 15 7.50222C15 8.53029 14.8032 9.50031 14.4096 10.4123C14.0161 11.3244 13.4817 12.1208 12.8063 12.8017C12.131 13.4827 11.3375 14.0193 10.4258 14.4116C9.51416 14.8039 8.53835 15 7.49834 15ZM7.49778 13.7418C9.2343 13.7418 10.7084 13.1338 11.92 11.918C13.1316 10.702 13.7373 9.23012 13.7373 7.50222C13.7373 5.7657 13.1316 4.29162 11.92 3.07997C10.7084 1.86844 9.23356 1.26268 7.49557 1.26268C5.76989 1.26268 4.29888 1.86844 3.08255 3.07997C1.86635 4.29162 1.25825 5.76644 1.25825 7.50443C1.25825 9.23012 1.86617 10.7011 3.082 11.9174C4.29796 13.1337 5.76989 13.7418 7.49778 13.7418Z" fill="#581817"/>
</svg>
