<svg width="148" height="131" viewBox="0 0 148 131" fill="none" xmlns="http://www.w3.org/2000/svg">
<path d="M2.227 2.95L3.264 3.902L2.465 4.803L1.411 3.851L2.227 2.95ZM4.386 3.035L5.44 3.97L4.624 4.871L3.57 3.936L4.386 3.035ZM5.593 5.738V10.651C5.593 12.028 6.29 12.47 7.599 12.487V14C5.661 13.983 4.964 12.878 4.913 11.263C4.59 11.96 3.91 12.47 2.822 12.47C1.7 12.47 0.595 11.909 0.595 10.685C0.595 9.325 1.836 8.118 4.896 7.149L4.913 6.52L5.44 5.738H5.593ZM0.918 10.413C0.918 11.365 4.913 11.263 4.913 10.532L4.879 8.101C2.074 8.849 0.918 9.954 0.918 10.413ZM7.58652 12.487H10.2215V14H7.58652V12.487ZM6.99152 13.745V12.776L7.58652 12.504V14L6.99152 13.745ZM10.1764 12.487H12.8114V14H10.1764V12.487ZM9.58136 13.745V12.776L10.1764 12.504V14L9.58136 13.745ZM12.7662 12.487H15.4012V14H12.7662V12.487ZM12.1712 13.745V12.776L12.7662 12.504V14L12.1712 13.745ZM15.356 12.487H17.991V14H15.356V12.487ZM14.761 13.745V12.776L15.356 12.504V14L14.761 13.745ZM17.9459 12.487H20.5809V14H17.9459V12.487ZM17.3509 13.745V12.776L17.9459 12.504V14L17.3509 13.745ZM36.1757 11.076C36.2947 12.028 36.8387 12.487 38.3347 12.487V14C37.0087 14 36.1417 13.473 35.8867 12.487C35.6147 13.456 34.8327 14 33.4387 14V14.017H20.5187V12.487H33.4387C35.4957 12.487 35.8867 11.96 36.0567 9.393H36.2437C36.2437 9.971 36.2097 10.481 36.1757 11.076ZM20.5017 14.017L19.9067 13.745V12.776L20.5017 12.504V14.017ZM25.9077 17.043L24.8707 16.091L25.6697 15.19L26.7237 16.125L25.9077 17.043ZM28.0667 17.111L27.0297 16.176L27.8287 15.275L28.8827 16.21L28.0667 17.111ZM39.863 2.865L40.917 3.817L40.101 4.718L39.064 3.766L39.863 2.865ZM42.039 2.95L43.076 3.885L42.277 4.786L41.223 3.851L42.039 2.95ZM43.314 10.226C43.331 12.198 42.175 14 39.829 14H38.333L37.721 13.745V12.776L38.333 12.504H40.033C42.039 12.504 43.382 11.535 42.94 9.648C42.498 10.702 41.682 11.144 40.832 11.144C39.506 11.144 38.962 10.141 38.962 9.07C38.962 7.676 40.016 6.18 41.104 6.18C42.464 6.18 43.314 7.676 43.314 10.226ZM40.883 9.954C41.563 9.954 42.26 9.784 42.821 9.138C42.379 7.965 41.682 7.37 40.917 7.37C40.033 7.37 39.285 8.05 39.285 8.917C39.285 9.597 40.05 9.954 40.883 9.954ZM45.3312 14H45.1782C45.3822 13.065 45.3822 12.13 45.3822 11.195V3.052L46.0282 2.1H46.1812V10.617C46.1812 12.13 45.5862 13.456 45.3312 14ZM49.4444 10.107L49.9034 8.832H50.0904C50.9064 10.328 51.3824 11.688 51.3824 12.912C51.3824 15.343 49.8014 17.689 47.6594 17.689C46.9624 17.689 46.0274 17.23 45.4834 16.839V16.652C45.9254 16.72 46.2824 16.72 46.7074 16.72C49.0194 16.72 51.0764 14.748 51.0764 13.065C51.0764 12.164 50.0904 10.804 49.4444 10.107Z" fill="#D2C8BC"/>
<path d="M92.148 12.045C91.179 12.487 88.816 13.439 88.799 15.547C88.816 17.519 91.366 18.828 94.239 18.828C95.072 18.828 95.99 18.743 97.231 18.488V18.641C96.67 19.015 95.072 20.069 93.797 20.069C90.38 20.069 88.544 18.097 88.544 15.717C88.595 13.235 90.414 12.045 91.485 11.467C90.278 10.345 89.411 9.138 89.071 8.543V8.152C91.383 6.078 95.004 6.486 95.004 8.849C95.004 9.852 94.29 10.957 93.168 11.824C94.035 12.232 95.038 12.487 96.194 12.487H97.554V14H96.908C95.106 14 93.474 13.133 92.148 12.045ZM89.581 8.764C90.023 9.359 90.873 10.396 92.114 11.229C93.865 10.532 94.596 9.393 94.596 9.002C94.596 7.982 91.825 7.404 89.581 8.764ZM97.5787 12.487H100.214V14H97.5787V12.487ZM96.9837 13.745V12.776L97.5787 12.504V14L96.9837 13.745ZM100.169 12.487H102.804V14H100.169V12.487ZM99.5735 13.745V12.776L100.169 12.504V14L99.5735 13.745ZM102.758 12.487H105.393V14H102.758V12.487ZM102.163 13.745V12.776L102.758 12.504V14L102.163 13.745ZM105.348 12.487H107.983V14H105.348V12.487ZM104.753 13.745V12.776L105.348 12.504V14L104.753 13.745ZM107.938 12.487H110.573V14H107.938V12.487ZM107.343 13.745V12.776L107.938 12.504V14L107.343 13.745ZM110.528 12.487H113.163V14H110.528V12.487ZM109.933 13.745V12.776L110.528 12.504V14L109.933 13.745ZM113.118 12.487H115.753V14H113.118V12.487ZM112.523 13.745V12.776L113.118 12.504V14L112.523 13.745ZM115.708 12.487H118.343V14H115.708V12.487ZM115.113 13.745V12.776L115.708 12.504V14L115.113 13.745ZM118.297 12.487H120.932V14H118.297V12.487ZM117.702 13.745V12.776L118.297 12.504V14L117.702 13.745ZM120.887 12.487H123.522V14H120.887V12.487ZM120.292 13.745V12.776L120.887 12.504V14L120.292 13.745ZM123.477 12.487H126.112V14H123.477V12.487ZM122.882 13.745V12.776L123.477 12.504V14L122.882 13.745ZM126.067 12.487H128.702V14H126.067V12.487ZM125.472 13.745V12.776L126.067 12.504V14L125.472 13.745ZM138.857 12.487V14C137.667 14 136.885 13.762 136.375 13.354C135.491 13.796 134.165 14 132.414 14H128.691V13.966L128.181 13.745V12.793L128.708 12.555V12.487H129.371C129.677 12.028 130.221 11.433 130.527 11.042V3.528C130.493 3.29 130.527 3.035 130.731 2.678L131.105 2.083H131.224C131.258 2.865 131.666 3.834 132.125 4.123L131.326 5.143V8.305C131.326 9.019 131.343 9.699 131.088 10.379L131.122 10.413C132.397 9.002 133.91 8.033 135.168 8.033C136.834 8.033 137.718 9.665 137.718 11.212C137.718 11.654 137.633 12.045 137.446 12.368C137.854 12.453 138.33 12.487 138.857 12.487ZM129.694 12.487C130.748 12.487 132.397 12.555 133.757 12.504C135.984 12.402 137.395 12.062 137.395 11.484C137.395 10.311 136.137 9.308 134.862 9.308C134.233 9.308 132.601 9.342 129.694 12.487ZM140.397 2.865L141.451 3.817L140.635 4.718L139.598 3.766L140.397 2.865ZM142.573 2.95L143.61 3.885L142.811 4.786L141.757 3.851L142.573 2.95ZM143.848 10.226C143.865 12.198 142.709 14 140.363 14H138.867L138.255 13.745V12.776L138.867 12.504H140.567C142.573 12.504 143.916 11.535 143.474 9.648C143.032 10.702 142.216 11.144 141.366 11.144C140.04 11.144 139.496 10.141 139.496 9.07C139.496 7.676 140.55 6.18 141.638 6.18C142.998 6.18 143.848 7.676 143.848 10.226ZM141.417 9.954C142.097 9.954 142.794 9.784 143.355 9.138C142.913 7.965 142.216 7.37 141.451 7.37C140.567 7.37 139.819 8.05 139.819 8.917C139.819 9.597 140.584 9.954 141.417 9.954Z" fill="#D2C8BC"/>
<path d="M60.148 42.045C59.179 42.487 56.816 43.439 56.799 45.547C56.816 47.519 59.366 48.828 62.239 48.828C63.072 48.828 63.99 48.743 65.231 48.488V48.641C64.67 49.015 63.072 50.069 61.797 50.069C58.38 50.069 56.544 48.097 56.544 45.717C56.595 43.235 58.414 42.045 59.485 41.467C58.278 40.345 57.411 39.138 57.071 38.543V38.152C59.383 36.078 63.004 36.486 63.004 38.849C63.004 39.852 62.29 40.957 61.168 41.824C62.035 42.232 63.038 42.487 64.194 42.487H65.554V44H64.908C63.106 44 61.474 43.133 60.148 42.045ZM57.581 38.764C58.023 39.359 58.873 40.396 60.114 41.229C61.865 40.532 62.596 39.393 62.596 39.002C62.596 37.982 59.825 37.404 57.581 38.764ZM65.5787 42.487H68.2137V44H65.5787V42.487ZM64.9837 43.745V42.776L65.5787 42.504V44L64.9837 43.745ZM68.1685 42.487H70.8035V44H68.1685V42.487ZM67.5735 43.745V42.776L68.1685 42.504V44L67.5735 43.745ZM70.7584 42.487H73.3934V44H70.7584V42.487ZM70.1634 43.745V42.776L70.7584 42.504V44L70.1634 43.745ZM73.3482 42.487H75.9832V44H73.3482V42.487ZM72.7532 43.745V42.776L73.3482 42.504V44L72.7532 43.745ZM75.9381 42.487H78.5731V44H75.9381V42.487ZM75.3431 43.745V42.776L75.9381 42.504V44L75.3431 43.745ZM83.4409 38.39C84.7839 38.39 85.5149 40.141 85.5149 41.586C85.5149 42.946 84.8009 43.932 83.7639 43.932C82.3869 43.932 81.0949 42.861 80.8059 42.079C80.3299 43.286 79.6329 44 78.4769 44L77.8649 43.745V42.776L78.4769 42.504V42.487C79.6159 42.487 80.3129 42.062 80.8739 40.923C81.7409 39.206 82.4889 38.39 83.4409 38.39ZM81.1799 41.195C82.2169 42.47 85.2259 43.014 85.2259 42.028C85.1579 40.838 84.2739 39.682 83.2369 39.682C82.5569 39.682 81.7919 40.107 81.1799 41.195Z" fill="#D2C8BC"/>
<path d="M99.582 68.991C100.007 69.977 100.755 70.504 101.877 70.504V72C100.636 72 99.854 71.524 99.361 70.538C99.31 71.32 98.919 71.83 98.137 71.864C97.066 71.898 95.859 71.405 94.958 70.555C94.482 70.81 94.057 71.065 93.632 71.354C93.87 73.428 94.142 76.25 93.547 77.185H93.394C93.428 75.927 93.207 73.819 93.054 72.799C92.799 71.014 93.309 69.875 94.856 69.297C95.553 67.512 96.624 66.322 97.712 66.39C98.698 66.458 99.174 67.529 99.582 68.991ZM95.247 69.382C96.369 70.232 99.259 70.98 99.242 70.198C99.174 68.753 98.46 67.767 97.389 67.699C96.624 67.631 95.825 68.243 95.247 69.382ZM117.501 69.076C117.62 70.028 118.164 70.487 119.66 70.487V72C118.334 72 117.467 71.473 117.212 70.487C116.94 71.456 116.158 72 114.764 72V72.017H101.844V70.487H114.764C116.821 70.487 117.212 69.96 117.382 67.393H117.569C117.569 67.971 117.535 68.481 117.501 69.076ZM101.827 72.017L101.232 71.745V70.776L101.827 70.504V72.017ZM107.233 75.043L106.196 74.091L106.995 73.19L108.049 74.125L107.233 75.043ZM109.392 75.111L108.355 74.176L109.154 73.275L110.208 74.21L109.392 75.111ZM124.554 66.39C125.897 66.39 126.628 68.141 126.628 69.586C126.628 70.946 125.914 71.932 124.877 71.932C123.5 71.932 122.208 70.861 121.919 70.079C121.443 71.286 120.746 72 119.59 72L118.978 71.745V70.776L119.59 70.504V70.487C120.729 70.487 121.426 70.062 121.987 68.923C122.854 67.206 123.602 66.39 124.554 66.39ZM122.293 69.195C123.33 70.47 126.339 71.014 126.339 70.028C126.271 68.838 125.387 67.682 124.35 67.682C123.67 67.682 122.905 68.107 122.293 69.195ZM130.716 70.487V72C128.982 72 128.2 71.133 128.2 69.059L128.183 64.86C128.166 63.262 128.149 61.919 128.064 61.375V61.222L128.761 59.913H128.88C128.88 61.239 128.88 62.31 128.88 63.619V68.498C128.88 69.807 129.271 70.47 130.716 70.487ZM142.02 70.3C142.496 70.436 143.074 70.504 143.737 70.504V72.017C142.479 72.017 141.731 71.592 141.289 71.099C140.32 71.796 138.79 72.034 137.209 72.034C135.339 72.034 133.537 71.932 133.095 70.657C132.755 71.388 132.211 72 130.698 72V72.017L130.103 71.745V70.776L130.698 70.504V70.487C132.109 70.487 133.095 70.13 133.333 68.09L133.537 68.056C133.503 68.6 133.452 69.076 133.35 69.518C133.486 70.113 133.86 70.334 134.285 70.47C136.206 67.886 138.076 65.965 139.708 65.965C141.204 65.965 142.292 67.376 142.292 69.178C142.292 69.603 142.19 69.977 142.02 70.3ZM134.489 70.538C137.226 70.963 142.037 70.623 142.037 69.433C142.037 68.311 140.898 67.325 139.453 67.325C138.484 67.325 136.359 68.226 134.489 70.538ZM144.308 62.055L145.345 63.007L144.546 63.908L143.492 62.956L144.308 62.055ZM146.467 62.14L147.504 63.075L146.705 63.976L145.651 63.041L146.467 62.14ZM145.362 67.325L145.923 66.016H146.076C146.484 66.781 146.875 67.92 146.875 69.195C146.875 70.895 145.957 71.983 143.73 72H143.713L143.118 71.745V70.776L143.713 70.504V70.487C145.617 70.47 146.535 69.96 146.535 69.297C146.535 68.821 145.906 68.022 145.362 67.325Z" fill="#D2C8BC"/>
<path d="M13.273 71.487H14.582V73H13.205C12.831 75.261 11.25 77.148 9.193 77.148C8.343 77.148 6.813 76.468 6.218 76.128V75.941C6.711 76.043 7.221 76.094 7.714 76.094C10.026 76.094 12.253 74.683 12.882 73H10.689C9.584 73 8.7 72.354 8.7 70.824C8.7 69.226 9.72 67.492 11.012 67.492C12.423 67.492 13.205 69.617 13.273 71.487ZM10.74 71.487H12.797C12.508 70.348 11.794 68.886 10.621 68.886C9.703 68.886 9.023 69.974 9.023 70.671C9.023 71.283 9.771 71.487 10.74 71.487ZM21.5229 69.906C21.8119 71.232 23.0529 71.521 23.9369 71.487V73C22.4579 73 21.7269 72.473 21.3529 71.691C21.1489 72.541 20.5539 72.932 19.8229 72.932C18.4799 72.932 17.1879 71.895 16.8649 71.113C16.3719 72.303 15.6919 73 14.5359 73L13.9409 72.745V71.776L14.5359 71.504V71.487C15.6749 71.487 16.3719 71.062 16.9329 69.923C17.8169 68.206 18.5479 67.39 19.5169 67.39C20.6389 67.39 21.3189 68.631 21.5229 69.906ZM17.2559 70.195C18.2759 71.47 21.3019 72.014 21.2849 71.028C21.2169 69.838 20.3329 68.682 19.3129 68.682C18.6159 68.682 17.8509 69.107 17.2559 70.195ZM23.9332 71.487H26.5682V73H23.9332V71.487ZM23.3382 72.745V71.776L23.9332 71.504V73L23.3382 72.745ZM26.523 71.487H29.158V73H26.523V71.487ZM25.928 72.745V71.776L26.523 71.504V73L25.928 72.745ZM29.1129 71.487H31.7479V73H29.1129V71.487ZM28.5179 72.745V71.776L29.1129 71.504V73L28.5179 72.745ZM31.7027 71.487H34.3377V73H31.7027V71.487ZM31.1077 72.745V71.776L31.7027 71.504V73L31.1077 72.745ZM34.2926 71.487H36.9276V73H34.2926V71.487ZM33.6976 72.745V71.776L34.2926 71.504V73L33.6976 72.745ZM36.8824 71.487H39.5174V73H36.8824V71.487ZM36.2874 72.745V71.776L36.8824 71.504V73L36.2874 72.745ZM41.4273 64.687L42.6003 65.724L41.6993 66.727L40.5263 65.69L41.4273 64.687ZM42.2263 70.076C42.3453 71.028 42.8893 71.487 44.3683 71.487V73C43.0593 73 42.1923 72.473 41.9373 71.487C41.6653 72.456 40.8833 73 39.4893 73L38.8773 72.745V71.776L39.4893 71.504V71.487C41.5463 71.487 41.9373 70.96 42.0903 68.393H42.2943C42.2943 68.971 42.2603 69.481 42.2263 70.076ZM45.2367 64.823L46.2907 65.775L45.4747 66.676L44.4377 65.724L45.2367 64.823ZM47.4127 64.925L48.4497 65.843L47.6507 66.744L46.5967 65.826L47.4127 64.925ZM47.1237 70.076C47.2427 71.028 47.7867 71.487 49.2657 71.487V73C47.9567 73 47.0897 72.473 46.8347 71.487C46.5627 72.456 45.7807 73 44.3867 73L43.7747 72.745V71.776L44.3867 71.504V71.487C46.4437 71.487 46.8347 70.96 46.9877 68.393H47.1917C47.1917 68.971 47.1577 69.481 47.1237 70.076ZM52.5652 63.123L51.7492 64.177V70.263C51.7492 72.082 51.1372 73 49.2842 73H49.2672L48.6892 72.745V71.776L49.2672 71.521V71.487C50.5252 71.487 50.9672 71.283 50.9672 70.807V62.494C50.9332 62.256 50.9842 62.001 51.1712 61.678L51.5452 61.083H51.6642C51.7152 61.865 52.1062 62.834 52.5652 63.123Z" fill="#D2C8BC"/>
<path d="M33.678 115.196V118C30.465 118 29.016 116.393 29.016 112.55L28.9845 104.77C28.953 101.809 28.9215 99.3205 28.764 98.3125V98.029L30.0555 95.6035H30.276C30.276 98.0605 30.276 100.045 30.276 102.47V111.511C30.276 113.936 31.0005 115.165 33.678 115.196ZM33.6438 115.196H38.5263V118H33.6438V115.196ZM32.5413 117.527V115.732L33.6438 115.228V118L32.5413 117.527ZM38.4426 115.196H43.3251V118H38.4426V115.196ZM37.3401 117.527V115.732L38.4426 115.228V118L37.3401 117.527ZM56.0305 115.196V118C54.3924 118 52.8804 117.905 51.6834 117.811C53.0379 118.158 54.2034 119.922 54.2034 121.623C54.2034 123.607 52.8174 124.867 51.2109 124.867C48.0924 124.867 45.6039 122.127 45.1944 118H43.2729L42.1704 117.527V115.732L43.2729 115.228V115.196H45.3519C45.6669 113.495 46.9584 108.959 49.2264 106.124H49.4469C52.0929 107.668 53.3214 109.936 53.3214 111.763C53.3214 113.621 51.9039 114.85 50.2659 115.669C52.7545 115.385 54.3294 115.196 56.0305 115.196ZM48.7224 108.613C46.8954 110.786 46.0764 114.094 45.7929 115.228C49.7304 115.07 52.8174 113.842 52.8174 112.046C52.8174 110.786 50.2974 109.306 48.7224 108.613ZM53.7624 121.465C53.7624 119.512 50.3919 117.433 45.6669 117.937C46.1394 120.709 49.2894 122.473 51.7149 122.473C52.5339 122.473 53.7624 122.41 53.7624 121.465ZM60.5113 101.872V112.046C60.5113 114.188 60.9838 115.165 63.5668 115.196V118C61.5823 118 60.3223 117.149 59.7238 115.826C59.1883 117.023 57.9598 117.905 56.1013 118C56.0383 118 55.9438 118 55.8808 118V117.905L54.9988 117.527V115.732L55.8808 115.322V115.196C57.5818 115.196 58.9363 114.755 58.9363 112.708V102.785V97.966L60.1333 95.6035H60.5113V101.872ZM68.6779 112.582C68.8984 114.346 69.9064 115.196 72.6469 115.196V118C70.2214 118 68.6149 117.023 68.1424 115.196C67.6384 116.992 66.1894 118 63.6064 118L62.4724 117.527V115.732L63.6064 115.228V115.196C67.4179 115.196 68.1424 114.22 68.4259 109.463H68.8039C68.8039 110.534 68.7409 111.479 68.6779 112.582ZM65.0554 123.954L63.1339 122.19L64.6144 120.52L66.5674 122.284L65.0554 123.954ZM69.0559 124.08L67.1344 122.347L68.6149 120.678L70.5679 122.41L69.0559 124.08ZM89.3132 106.817C92.1167 106.817 94.1327 109.432 94.1327 112.771C94.1327 116.834 89.5022 118.063 84.7142 118.063C81.2492 118.063 77.9102 117.874 77.0912 115.48C76.4612 116.866 75.4532 118 72.6497 118L71.5472 117.527V115.732L72.6497 115.228V115.196C75.2642 115.196 77.0912 114.535 77.5322 110.755L77.9102 110.692C77.8472 111.7 77.7212 112.582 77.5637 113.401C77.7842 114.503 78.5087 114.913 79.2962 115.165C82.8557 110.377 86.3207 106.817 89.3132 106.817ZM79.6742 115.291C84.7457 116.078 93.6602 115.448 93.6602 113.243C93.6287 111.164 91.5497 109.337 88.8722 109.337C87.0767 109.337 83.1077 111.007 79.6742 115.291ZM101.938 115.196V118C98.7253 118 97.2763 116.393 97.2763 112.55L97.2448 104.77C97.2133 101.809 97.1818 99.3205 97.0243 98.3125V98.029L98.3158 95.6035H98.5363C98.5363 98.0605 98.5363 100.045 98.5363 102.47V111.511C98.5363 113.936 99.2608 115.165 101.938 115.196ZM108.866 98.911L111.039 100.832L109.37 102.691L107.228 100.769L108.866 98.911ZM110.378 114.818C111.669 115.102 113.181 115.196 115.229 115.196V118C112.142 118 109.779 117.496 108.015 116.614C106.503 117.37 104.393 118 101.936 118L100.833 117.527V115.763L101.904 115.291V115.196C103.29 115.196 104.928 115.039 106.283 114.724C105.464 113.936 104.96 112.865 104.96 111.763C104.96 108.928 107.196 105.683 109.275 105.683C111.291 105.683 112.52 107.951 112.52 110.44C112.52 112.172 111.638 113.779 110.378 114.818ZM105.495 111.07C105.495 112.172 107.228 113.401 108.677 114.094C110.409 113.338 112.016 112.204 112.016 111.164C111.984 109.4 110.472 108.14 109.023 108.14C107.543 108.14 105.495 109.526 105.495 111.07ZM116.83 102.848L118.783 104.612L117.271 106.282L115.35 104.518L116.83 102.848ZM120.862 103.037L122.784 104.738L121.303 106.408L119.35 104.707L120.862 103.037ZM120.327 112.582C120.547 114.346 121.555 115.196 124.296 115.196V118C121.87 118 120.264 117.023 119.791 115.196C119.287 116.992 117.838 118 115.255 118L114.121 117.527V115.732L115.255 115.228V115.196C119.067 115.196 119.791 114.22 120.075 109.463H120.453C120.453 110.534 120.39 111.479 120.327 112.582ZM128.394 106.912H128.677C129.433 108.329 130.158 110.44 130.158 112.802C130.158 115.952 128.457 117.968 124.33 118H124.299L123.196 117.527V115.732L124.299 115.228V115.196C127.827 115.165 129.528 114.22 129.528 112.991C129.528 112.109 128.362 110.629 127.354 109.337L128.394 106.912ZM126.724 124.143L124.771 122.41L126.283 120.741L128.236 122.473L126.724 124.143Z" fill="#D2C8BC"/>
</svg>
