<svg width="156" height="129" viewBox="0 0 156 129" fill="none" xmlns="http://www.w3.org/2000/svg">
<path d="M19.162 5.46V9.54H24.653V10.73H19.162V16H17.7V4.27H25.333V5.46H19.162ZM28.8075 16H27.3455V4.27H28.8075V16ZM41.0079 16H38.7639L33.2389 5.698C33.2729 7.075 33.2899 8.758 33.2899 10.135V16H31.8279V4.27H34.0719L39.5969 14.572C39.5629 13.195 39.5459 11.512 39.5459 10.135V4.27H40.9739L41.0079 16ZM51.8331 14.81V16H44.0301V4.27H51.6631V5.46H45.4921V9.54H51.1531V10.73H45.4921V14.81H51.8331Z" fill="#D2C8BC"/>
<path d="M101.766 4.338C104.486 4.678 106.407 6.497 106.407 9.999C106.407 13.45 104.401 15.592 101.681 15.932C101.086 16 100.814 16 100.185 16H96.7V4.27H100.27C100.899 4.27 101.171 4.27 101.766 4.338ZM101.528 14.725C103.517 14.402 104.809 12.77 104.809 9.999C104.809 7.398 103.602 5.868 101.613 5.545C101.239 5.477 100.797 5.46 100.185 5.46H98.162V14.81H100.1C100.712 14.81 101.154 14.793 101.528 14.725ZM116.556 14.81V16H108.753V4.27H116.386V5.46H110.215V9.54H115.876V10.73H110.215V14.81H116.556ZM122.368 4.032C124.799 4.032 126.074 5.511 126.295 7.517H124.731C124.595 6.038 123.728 5.188 122.249 5.188C121.008 5.188 120.022 5.766 120.022 6.99C120.022 8.265 120.753 8.809 122.538 9.217C125.122 9.812 126.414 10.866 126.414 12.855C126.414 14.912 124.646 16.238 122.385 16.238C119.801 16.238 118.169 14.929 117.914 12.668H119.478C119.818 14.215 120.889 15.082 122.419 15.082C123.762 15.082 124.85 14.351 124.85 13.127C124.85 11.699 124.034 11.053 121.977 10.577C119.903 10.101 118.458 9.268 118.458 7.33C118.458 5.307 120.209 4.032 122.368 4.032ZM130.137 16H128.675V4.27H130.137V16ZM138.24 10.339H142.439V16H141.147V13.96L140.62 15.048C139.957 15.796 138.92 16.238 137.577 16.238C134.16 16.238 132.256 13.62 132.256 10.186C132.256 6.616 134.466 4.032 137.798 4.032C140.773 4.032 142.337 5.715 142.575 8.01L142.592 8.18H141.13L141.096 8.01C140.756 6.327 139.719 5.188 137.764 5.188C135.367 5.188 133.888 7.279 133.888 10.118C133.888 13.008 135.35 15.082 137.662 15.082C139.566 15.082 140.977 13.62 140.977 11.529H138.24V10.339ZM154.406 16H152.162L146.637 5.698C146.671 7.075 146.688 8.758 146.688 10.135V16H145.226V4.27H147.47L152.995 14.572C152.961 13.195 152.944 11.512 152.944 10.135V4.27H154.372L154.406 16Z" fill="#D2C8BC"/>
<path d="M50.868 32.338C52.738 32.576 53.911 33.749 53.911 35.738C53.911 37.727 52.568 38.917 50.868 39.138C50.341 39.206 49.933 39.206 49.338 39.206H47.162V44H45.7V32.27H49.338C49.933 32.27 50.341 32.27 50.868 32.338ZM50.783 37.897C51.616 37.71 52.347 37.098 52.347 35.738C52.347 34.378 51.616 33.766 50.783 33.579C50.46 33.511 50.001 33.494 49.474 33.494H47.162V37.982H49.474C50.001 37.982 50.46 37.965 50.783 37.897ZM57.3222 44H55.8602V32.27H57.3222V44ZM68.1456 42.81V44H60.3426V32.27H67.9756V33.46H61.8046V37.54H67.4656V38.73H61.8046V42.81H68.1456ZM74.9611 32.032C77.9361 32.032 79.5001 33.715 79.7381 36.01L79.7551 36.18H78.2931L78.2591 36.01C77.9191 34.327 76.8821 33.188 74.9271 33.188C72.5301 33.188 71.0511 35.279 71.0511 38.118C71.0511 41.008 72.5131 43.082 74.8251 43.082C76.7801 43.082 77.8171 41.943 78.1571 40.26L78.1911 40.09H79.6531L79.6361 40.26C79.4151 42.385 77.8341 44.238 74.7401 44.238C71.3231 44.238 69.4191 41.62 69.4191 38.186C69.4191 34.616 71.6291 32.032 74.9611 32.032ZM90.0098 42.81V44H82.2068V32.27H89.8398V33.46H83.6688V37.54H89.3298V38.73H83.6688V42.81H90.0098ZM95.8224 32.032C98.2534 32.032 99.5284 33.511 99.7494 35.517H98.1854C98.0494 34.038 97.1824 33.188 95.7034 33.188C94.4624 33.188 93.4764 33.766 93.4764 34.99C93.4764 36.265 94.2074 36.809 95.9924 37.217C98.5764 37.812 99.8684 38.866 99.8684 40.855C99.8684 42.912 98.1004 44.238 95.8394 44.238C93.2554 44.238 91.6234 42.929 91.3684 40.668H92.9324C93.2724 42.215 94.3434 43.082 95.8734 43.082C97.2164 43.082 98.3044 42.351 98.3044 41.127C98.3044 39.699 97.4884 39.053 95.4314 38.577C93.3574 38.101 91.9124 37.268 91.9124 35.33C91.9124 33.307 93.6634 32.032 95.8224 32.032Z" fill="#D2C8BC"/>
<path d="M6.783 69.339H10.982V75H9.69V72.96L9.163 74.048C8.5 74.796 7.463 75.238 6.12 75.238C2.703 75.238 0.799 72.62 0.799 69.186C0.799 65.616 3.009 63.032 6.341 63.032C9.316 63.032 10.88 64.715 11.118 67.01L11.135 67.18H9.673L9.639 67.01C9.299 65.327 8.262 64.188 6.307 64.188C3.91 64.188 2.431 66.279 2.431 69.118C2.431 72.008 3.893 74.082 6.205 74.082C8.109 74.082 9.52 72.62 9.52 70.529H6.783V69.339ZM21.4873 71.923C21.6233 73.453 21.7933 74.371 22.2693 75H20.6543C20.3313 74.252 20.1783 73.504 20.0253 72.059C19.8893 70.852 19.4303 70.053 18.2743 69.968C18.0023 69.951 17.7133 69.951 17.4413 69.951H15.2313V75H13.7693V63.27H17.6113C18.2063 63.27 18.6143 63.27 19.1413 63.338C20.8413 63.559 22.0653 64.494 22.0653 66.466C22.0653 68.013 21.0623 68.897 19.9743 69.237C20.9263 69.679 21.3853 70.75 21.4873 71.923ZM15.2313 68.761H17.4753C18.0023 68.761 18.2913 68.761 18.6143 68.727C19.7023 68.625 20.5013 67.928 20.5013 66.602C20.5013 65.293 19.8723 64.698 18.7843 64.528C18.4613 64.477 18.1383 64.46 17.6113 64.46H15.2313V68.761ZM28.9357 63.032C32.5057 63.032 34.4777 65.548 34.4777 69.135C34.4777 72.705 32.5057 75.238 28.9357 75.238C25.3657 75.238 23.3937 72.705 23.3937 69.135C23.3937 65.548 25.3657 63.032 28.9357 63.032ZM28.9357 74.082C31.4007 74.082 32.8457 72.178 32.8457 69.135C32.8457 66.075 31.4007 64.188 28.9357 64.188C26.4707 64.188 25.0257 66.075 25.0257 69.135C25.0257 72.178 26.4707 74.082 28.9357 74.082ZM51.1939 63.27L47.9299 75H46.0089L43.3569 64.885L40.6029 75H38.6649L35.5709 63.27H37.2369L39.7019 73.691L42.4219 63.44H44.3939L47.0459 73.708L49.6469 63.27H51.1939ZM62.1954 75H59.9514L54.4264 64.698C54.4604 66.075 54.4774 67.758 54.4774 69.135V75H53.0154V63.27H55.2594L60.7844 73.572C60.7504 72.195 60.7334 70.512 60.7334 69.135V63.27H62.1614L62.1954 75Z" fill="#D2C8BC"/>
<path d="M118.065 63.27L114.801 75H112.88L110.228 64.885L107.474 75H105.536L102.442 63.27H104.108L106.573 73.691L109.293 63.44H111.265L113.917 73.708L116.518 63.27H118.065ZM121.349 75H119.887V63.27H121.349V75ZM133.073 64.46H128.891V75H127.429V64.46H123.247V63.27H133.073V64.46ZM144.162 63.27V75H142.7V69.866H136.24V75H134.778V63.27H136.24V68.642H142.7V63.27H144.162Z" fill="#D2C8BC"/>
<path d="M47.1035 99.424C47.1035 99.718 46.988 99.9805 46.757 100.211C46.526 100.421 46.2425 100.526 45.9065 100.526C45.8015 100.526 45.7175 100.505 45.6545 100.463C45.6125 100.4 45.5705 100.348 45.5285 100.306C45.4865 100.243 45.4655 100.18 45.4655 100.117C45.4655 99.907 45.602 99.676 45.875 99.424C46.148 99.172 46.4105 99.046 46.6625 99.046C46.9565 99.046 47.1035 99.172 47.1035 99.424ZM47.45 105.535C47.45 105.661 47.3345 105.787 47.1035 105.913C46.8095 106.102 46.4735 106.312 46.0955 106.543C45.7805 106.732 45.4235 106.952 45.0245 107.204C44.6255 107.435 44.195 107.677 43.733 107.929C43.586 108.013 43.355 108.139 43.04 108.307C42.746 108.454 42.4205 108.611 42.0635 108.779C41.7275 108.926 41.3705 109.053 40.9925 109.158C40.6355 109.284 40.31 109.347 40.016 109.347C39.722 109.347 39.491 109.284 39.323 109.158C39.155 109.032 39.071 108.811 39.071 108.496C39.071 108.076 39.281 107.561 39.701 106.952C40.142 106.343 40.625 105.755 41.15 105.188C41.759 104.516 42.452 103.823 43.229 103.109C43.313 103.025 43.4075 102.983 43.5125 102.983C43.7015 102.983 43.796 103.078 43.796 103.267C43.796 103.393 43.754 103.498 43.67 103.582C43.481 103.792 43.187 104.096 42.788 104.495C42.41 104.873 42.0215 105.283 41.6225 105.724C41.2445 106.165 40.9085 106.606 40.6145 107.047C40.3205 107.488 40.1735 107.866 40.1735 108.181C40.1735 108.475 40.3625 108.622 40.7405 108.622C40.9295 108.622 41.15 108.59 41.402 108.527C41.675 108.443 41.9375 108.349 42.1895 108.244C42.4415 108.139 42.6725 108.034 42.8825 107.929C43.1135 107.803 43.292 107.708 43.418 107.645C43.67 107.519 43.985 107.362 44.363 107.173C44.741 106.963 45.119 106.753 45.497 106.543C45.875 106.312 46.211 106.102 46.505 105.913C46.82 105.724 47.0195 105.587 47.1035 105.503C47.2085 105.44 47.282 105.409 47.324 105.409C47.408 105.409 47.45 105.451 47.45 105.535ZM61.2854 105.535C61.2854 105.661 61.1699 105.787 60.9389 105.913C60.6449 106.102 60.3089 106.312 59.9309 106.543C59.6159 106.732 59.2589 106.952 58.8599 107.204C58.4609 107.435 58.0304 107.677 57.5684 107.929C56.8334 108.328 56.2139 108.622 55.7099 108.811C55.2059 108.979 54.8069 109.063 54.5129 109.063C53.9249 109.063 53.6309 108.8 53.6309 108.275C53.6309 107.897 53.7569 107.435 54.0089 106.889C54.2819 106.343 54.5864 105.818 54.9224 105.314C55.2794 104.789 55.6154 104.327 55.9304 103.928C56.2454 103.508 56.4449 103.256 56.5289 103.172C56.6759 103.025 56.7494 102.878 56.7494 102.731C56.7494 102.668 56.7179 102.637 56.6549 102.637C56.6339 102.637 56.4449 102.752 56.0879 102.983C55.7519 103.193 55.3319 103.466 54.8279 103.802C54.3449 104.138 53.8094 104.495 53.2214 104.873C52.6334 105.251 52.0769 105.608 51.5519 105.944C51.0479 106.28 50.6069 106.574 50.2289 106.826C49.8719 107.078 49.6514 107.225 49.5674 107.267C49.4414 107.33 49.2734 107.435 49.0634 107.582C48.8744 107.708 48.6749 107.834 48.4649 107.961C48.2759 108.086 48.1079 108.202 47.9609 108.307C47.8139 108.412 47.7194 108.475 47.6774 108.496C47.5934 108.559 47.4779 108.59 47.3309 108.59C47.2049 108.59 47.1209 108.559 47.0789 108.496C47.0579 108.475 47.0474 108.422 47.0474 108.338C47.0474 108.254 47.1419 108.086 47.3309 107.834L50.6699 103.928C50.7329 103.865 50.7644 103.802 50.7644 103.739C50.7644 103.613 50.7119 103.55 50.6069 103.55C50.5439 103.55 50.4704 103.571 50.3864 103.613C50.3444 103.634 50.3024 103.666 50.2604 103.708C49.9454 103.897 49.5989 104.128 49.2209 104.401C48.8639 104.653 48.5069 104.905 48.1499 105.157C47.7929 105.409 47.4569 105.64 47.1419 105.85C46.8479 106.06 46.6169 106.217 46.4489 106.322C46.4069 106.364 46.3544 106.406 46.2914 106.448C46.2494 106.469 46.2074 106.48 46.1654 106.48C46.0814 106.48 46.0394 106.438 46.0394 106.354C46.0394 106.228 46.1549 106.102 46.3859 105.976C46.6169 105.808 46.8374 105.65 47.0474 105.503C47.2574 105.335 47.4779 105.178 47.7089 105.031C48.1499 104.716 48.5804 104.411 49.0004 104.117C49.3574 103.865 49.7564 103.592 50.1974 103.298C50.6384 102.983 51.0479 102.71 51.4259 102.479C51.5099 102.437 51.6149 102.385 51.7409 102.322C51.8879 102.238 52.0244 102.196 52.1504 102.196C52.2554 102.196 52.3289 102.217 52.3709 102.259C52.4759 102.364 52.5284 102.469 52.5284 102.574C52.5284 102.826 52.3814 103.13 52.0874 103.487C52.0034 103.592 51.8039 103.823 51.4889 104.18C51.1739 104.537 50.8379 104.915 50.4809 105.314C50.1449 105.692 49.8299 106.039 49.5359 106.354C49.2419 106.669 49.0739 106.858 49.0319 106.921C48.9689 106.984 48.9374 107.036 48.9374 107.078C48.9374 107.141 48.9689 107.173 49.0319 107.173C49.0529 107.152 49.2419 107.026 49.5989 106.795C49.9769 106.564 50.4284 106.28 50.9534 105.944C51.4784 105.608 52.0454 105.241 52.6544 104.842C53.2634 104.443 53.8304 104.075 54.3554 103.739C54.9014 103.382 55.3634 103.088 55.7414 102.857C56.1194 102.605 56.3294 102.469 56.3714 102.448C56.4554 102.406 56.5919 102.322 56.7809 102.196C56.9909 102.049 57.2009 101.902 57.4109 101.755C57.6209 101.608 57.8099 101.471 57.9779 101.345C58.1669 101.219 58.2824 101.146 58.3244 101.125C58.4504 101.041 58.5659 100.999 58.6709 100.999C58.7759 100.999 58.8599 101.041 58.9229 101.125C58.9649 101.209 58.9859 101.272 58.9859 101.314C58.9859 101.419 58.9544 101.524 58.8914 101.629C58.8284 101.713 58.7654 101.786 58.7024 101.849C57.9254 102.689 57.2849 103.424 56.7809 104.054C56.2769 104.663 55.8779 105.199 55.5839 105.661C55.3109 106.123 55.1114 106.511 54.9854 106.826C54.8804 107.12 54.8279 107.362 54.8279 107.551C54.8279 107.719 54.8594 107.855 54.9224 107.961C55.0064 108.065 55.0904 108.139 55.1744 108.181C55.2584 108.244 55.3634 108.265 55.4894 108.244C55.6574 108.244 55.8464 108.212 56.0564 108.149C56.2664 108.086 56.4554 108.013 56.6234 107.929C56.8334 107.845 57.0434 107.75 57.2534 107.645C57.5054 107.519 57.8204 107.362 58.1984 107.173C58.5764 106.963 58.9544 106.753 59.3324 106.543C59.7104 106.312 60.0464 106.102 60.3404 105.913C60.6554 105.724 60.8549 105.587 60.9389 105.503C61.0439 105.44 61.1174 105.409 61.1594 105.409C61.2434 105.409 61.2854 105.451 61.2854 105.535ZM78.2774 96.778C78.2774 96.925 78.2459 97.051 78.1829 97.156C78.1199 97.24 77.8784 97.2925 77.4584 97.3135C77.2064 97.3135 76.8284 97.3135 76.3244 97.3135C75.8414 97.3135 75.2744 97.3135 74.6234 97.3135C73.9724 97.2925 73.2584 97.282 72.4814 97.282C71.7254 97.261 70.9589 97.2505 70.1819 97.2505C69.3839 98.0905 68.5334 98.962 67.6304 99.865C66.7274 100.768 65.8454 101.618 64.9844 102.416C64.1444 103.214 63.3674 103.928 62.6534 104.558C61.9394 105.167 61.3934 105.619 61.0154 105.913C60.5954 106.69 60.3854 107.33 60.3854 107.834C60.3854 108.044 60.4484 108.191 60.5744 108.275C60.7214 108.338 60.8999 108.37 61.1099 108.37C61.3409 108.37 61.6034 108.338 61.8974 108.275C62.1914 108.191 62.4539 108.107 62.6849 108.023C62.9369 107.939 63.1364 107.866 63.2834 107.803C63.4514 107.74 63.5249 107.719 63.5039 107.74C63.7349 107.614 64.0394 107.446 64.4174 107.236C64.7954 107.026 65.1734 106.816 65.5514 106.606C65.9294 106.375 66.2759 106.175 66.5909 106.007C66.9059 105.818 67.1054 105.682 67.1894 105.598C67.2944 105.535 67.3679 105.503 67.4099 105.503C67.4939 105.503 67.5359 105.545 67.5359 105.629C67.5359 105.755 67.4204 105.881 67.1894 106.007C66.9584 106.154 66.6959 106.322 66.4019 106.511C66.1499 106.679 65.8559 106.858 65.5199 107.047C65.2049 107.236 64.8479 107.446 64.4489 107.677C63.5879 108.16 62.8109 108.538 62.1179 108.811C61.4459 109.063 60.8894 109.189 60.4484 109.189C59.7554 109.189 59.4089 108.863 59.4089 108.212C59.4089 107.729 59.6504 107.078 60.1334 106.259C60.6374 105.419 61.2779 104.495 62.0549 103.487C62.8529 102.479 63.7454 101.429 64.7324 100.337C65.7194 99.2245 66.6959 98.1745 67.6619 97.1875C67.0739 97.1665 66.5174 97.156 65.9924 97.156C65.4674 97.135 65.0054 97.1245 64.6064 97.1245C64.2284 97.1245 63.9239 97.1245 63.6929 97.1245C63.4619 97.1245 63.3359 97.1245 63.3149 97.1245C63.1679 97.1245 63.0629 97.0825 62.9999 96.9985C62.9579 96.8935 62.9369 96.7885 62.9369 96.6835C62.9579 96.4735 63.1364 96.3475 63.4724 96.3055C63.8924 96.3055 64.3754 96.316 64.9214 96.337C65.3834 96.358 65.9084 96.379 66.4964 96.4C67.1054 96.4 67.7459 96.4105 68.4179 96.4315C69.0269 95.8225 69.6044 95.266 70.1504 94.762C70.6964 94.237 71.1794 93.7855 71.5994 93.4075C72.0404 93.0295 72.4079 92.7355 72.7019 92.5255C73.0169 92.3155 73.2269 92.2105 73.3319 92.2105C73.4369 92.2105 73.5104 92.2315 73.5524 92.2735C73.6154 92.3365 73.6469 92.41 73.6469 92.494C73.6469 92.83 73.3844 93.355 72.8594 94.069C72.3554 94.762 71.7044 95.56 70.9064 96.463C71.7884 96.484 72.6494 96.505 73.4894 96.526C74.3294 96.526 75.0854 96.5365 75.7574 96.5575C76.4294 96.5575 76.9754 96.568 77.3954 96.589C77.8154 96.589 78.0464 96.589 78.0884 96.589C78.2144 96.589 78.2774 96.652 78.2774 96.778ZM72.1034 93.754C72.1034 93.691 72.0824 93.6595 72.0404 93.6595C71.9564 93.6595 71.6309 93.922 71.0639 94.447C70.4969 94.951 69.8039 95.6125 68.9849 96.4315C69.1949 96.4315 69.3944 96.4315 69.5834 96.4315C69.7724 96.4315 69.9824 96.442 70.2134 96.463C70.7594 95.812 71.2109 95.245 71.5679 94.762C71.9249 94.279 72.1034 93.943 72.1034 93.754ZM68.1974 97.219C67.6094 97.807 67.0004 98.437 66.3704 99.109C65.7614 99.76 65.1524 100.432 64.5434 101.125C63.9554 101.797 63.3989 102.469 62.8739 103.141C62.3489 103.813 61.8974 104.453 61.5194 105.062C61.8974 104.768 62.4014 104.338 63.0314 103.771C63.6824 103.183 64.3754 102.532 65.1104 101.818C65.8454 101.083 66.6014 100.316 67.3784 99.5185C68.1554 98.7205 68.8694 97.954 69.5204 97.219H68.1974ZM77.0844 105.535C77.0844 105.661 76.9689 105.787 76.7379 105.913C76.4439 106.102 76.1079 106.312 75.7299 106.543C75.4149 106.732 75.0579 106.952 74.6589 107.204C74.2599 107.435 73.8294 107.677 73.3674 107.929C73.0944 108.076 72.7479 108.244 72.3279 108.433C71.9289 108.601 71.4879 108.769 71.0049 108.937C70.5219 109.084 70.0284 109.21 69.5244 109.315C69.0414 109.441 68.5794 109.504 68.1384 109.504C67.5924 109.504 67.1304 109.389 66.7524 109.158C66.3744 108.927 66.1854 108.506 66.1854 107.897C66.1854 107.498 66.3114 107.047 66.5634 106.543C66.8364 106.039 67.1934 105.524 67.6344 104.999C68.0754 104.474 68.5794 103.96 69.1464 103.456C69.7134 102.952 70.3119 102.511 70.9419 102.133C71.5929 101.734 72.2439 101.419 72.8949 101.188C73.5459 100.936 74.1654 100.81 74.7534 100.81C75.4884 100.81 75.8559 100.999 75.8559 101.377C75.8559 101.692 75.6144 102.091 75.1314 102.574C74.6484 103.057 74.0079 103.54 73.2099 104.023C72.4329 104.506 71.5509 104.947 70.5639 105.346C69.5769 105.724 68.5899 105.986 67.6029 106.133C67.4139 106.532 67.3194 106.9 67.3194 107.236C67.3194 107.299 67.3299 107.414 67.3509 107.582C67.3719 107.75 67.4349 107.929 67.5399 108.118C67.6659 108.286 67.8549 108.443 68.1069 108.59C68.3589 108.737 68.7054 108.811 69.1464 108.811C69.5664 108.811 70.0914 108.727 70.7214 108.559C71.3514 108.391 72.1284 108.086 73.0524 107.645C73.3044 107.519 73.6194 107.362 73.9974 107.173C74.3754 106.963 74.7534 106.753 75.1314 106.543C75.5094 106.312 75.8454 106.102 76.1394 105.913C76.4544 105.724 76.6539 105.587 76.7379 105.503C76.8429 105.44 76.9164 105.409 76.9584 105.409C77.0424 105.409 77.0844 105.451 77.0844 105.535ZM74.8164 101.692C74.8164 101.44 74.5644 101.314 74.0604 101.314C73.5354 101.314 72.9684 101.461 72.3594 101.755C71.7504 102.028 71.1519 102.385 70.5639 102.826C69.9969 103.246 69.4614 103.729 68.9574 104.275C68.4744 104.8 68.0859 105.314 67.7919 105.818C68.5479 105.692 69.3354 105.451 70.1544 105.094C70.9944 104.737 71.7504 104.348 72.4224 103.928C73.1154 103.508 73.6824 103.099 74.1234 102.7C74.5854 102.28 74.8164 101.944 74.8164 101.692ZM90.9397 105.535C90.9397 105.661 90.8242 105.787 90.5932 105.913C90.2992 106.102 89.9632 106.312 89.5852 106.543C89.2702 106.732 88.9132 106.952 88.5142 107.204C88.1152 107.435 87.6847 107.677 87.2227 107.929C86.4877 108.328 85.8682 108.622 85.3642 108.811C84.8602 108.979 84.4612 109.063 84.1672 109.063C83.5792 109.063 83.2852 108.8 83.2852 108.275C83.2852 107.897 83.4112 107.435 83.6632 106.889C83.9362 106.343 84.2407 105.818 84.5767 105.314C84.9337 104.789 85.2697 104.327 85.5847 103.928C85.8997 103.508 86.0992 103.256 86.1832 103.172C86.3302 103.025 86.4037 102.878 86.4037 102.731C86.4037 102.668 86.3722 102.637 86.3092 102.637C86.2882 102.637 86.0992 102.752 85.7422 102.983C85.4062 103.193 84.9862 103.466 84.4822 103.802C83.9992 104.138 83.4637 104.495 82.8757 104.873C82.2877 105.251 81.7312 105.608 81.2062 105.944C80.7022 106.28 80.2612 106.574 79.8832 106.826C79.5262 107.078 79.3057 107.225 79.2217 107.267C79.0957 107.33 78.9277 107.435 78.7177 107.582C78.5287 107.708 78.3292 107.834 78.1192 107.961C77.9302 108.086 77.7622 108.202 77.6152 108.307C77.4682 108.412 77.3737 108.475 77.3317 108.496C77.2477 108.559 77.1322 108.59 76.9852 108.59C76.8592 108.59 76.7752 108.559 76.7332 108.496C76.7122 108.475 76.7017 108.422 76.7017 108.338C76.7017 108.254 76.7962 108.086 76.9852 107.834L80.3242 103.928C80.3872 103.865 80.4187 103.802 80.4187 103.739C80.4187 103.613 80.3662 103.55 80.2612 103.55C80.1982 103.55 80.1247 103.571 80.0407 103.613C79.9987 103.634 79.9567 103.666 79.9147 103.708C79.5997 103.897 79.2532 104.128 78.8752 104.401C78.5182 104.653 78.1612 104.905 77.8042 105.157C77.4472 105.409 77.1112 105.64 76.7962 105.85C76.5022 106.06 76.2712 106.217 76.1032 106.322C76.0612 106.364 76.0087 106.406 75.9457 106.448C75.9037 106.469 75.8617 106.48 75.8197 106.48C75.7357 106.48 75.6937 106.438 75.6937 106.354C75.6937 106.228 75.8092 106.102 76.0402 105.976C76.2712 105.808 76.4917 105.65 76.7017 105.503C76.9117 105.335 77.1322 105.178 77.3632 105.031C77.8042 104.716 78.2347 104.411 78.6547 104.117C79.0117 103.865 79.4107 103.592 79.8517 103.298C80.2927 102.983 80.7022 102.71 81.0802 102.479C81.1642 102.437 81.2692 102.385 81.3952 102.322C81.5422 102.238 81.6787 102.196 81.8047 102.196C81.9097 102.196 81.9832 102.217 82.0252 102.259C82.1302 102.364 82.1827 102.469 82.1827 102.574C82.1827 102.826 82.0357 103.13 81.7417 103.487C81.6577 103.592 81.4582 103.823 81.1432 104.18C80.8282 104.537 80.4922 104.915 80.1352 105.314C79.7992 105.692 79.4842 106.039 79.1902 106.354C78.8962 106.669 78.7282 106.858 78.6862 106.921C78.6232 106.984 78.5917 107.036 78.5917 107.078C78.5917 107.141 78.6232 107.173 78.6862 107.173C78.7072 107.152 78.8962 107.026 79.2532 106.795C79.6312 106.564 80.0827 106.28 80.6077 105.944C81.1327 105.608 81.6997 105.241 82.3087 104.842C82.9177 104.443 83.4847 104.075 84.0097 103.739C84.5557 103.382 85.0177 103.088 85.3957 102.857C85.7737 102.605 85.9837 102.469 86.0257 102.448C86.1097 102.406 86.2462 102.322 86.4352 102.196C86.6452 102.049 86.8552 101.902 87.0652 101.755C87.2752 101.608 87.4642 101.471 87.6322 101.345C87.8212 101.219 87.9367 101.146 87.9787 101.125C88.1047 101.041 88.2202 100.999 88.3252 100.999C88.4302 100.999 88.5142 101.041 88.5772 101.125C88.6192 101.209 88.6402 101.272 88.6402 101.314C88.6402 101.419 88.6087 101.524 88.5457 101.629C88.4827 101.713 88.4197 101.786 88.3567 101.849C87.5797 102.689 86.9392 103.424 86.4352 104.054C85.9312 104.663 85.5322 105.199 85.2382 105.661C84.9652 106.123 84.7657 106.511 84.6397 106.826C84.5347 107.12 84.4822 107.362 84.4822 107.551C84.4822 107.719 84.5137 107.855 84.5767 107.961C84.6607 108.065 84.7447 108.139 84.8287 108.181C84.9127 108.244 85.0177 108.265 85.1437 108.244C85.3117 108.244 85.5007 108.212 85.7107 108.149C85.9207 108.086 86.1097 108.013 86.2777 107.929C86.4877 107.845 86.6977 107.75 86.9077 107.645C87.1597 107.519 87.4747 107.362 87.8527 107.173C88.2307 106.963 88.6087 106.753 88.9867 106.543C89.3647 106.312 89.7007 106.102 89.9947 105.913C90.3097 105.724 90.5092 105.587 90.5932 105.503C90.6982 105.44 90.7717 105.409 90.8137 105.409C90.8977 105.409 90.9397 105.451 90.9397 105.535ZM107.932 96.778C107.932 96.925 107.9 97.051 107.837 97.156C107.774 97.24 107.533 97.2925 107.113 97.3135C106.861 97.3135 106.483 97.3135 105.979 97.3135C105.496 97.3135 104.929 97.3135 104.278 97.3135C103.627 97.2925 102.913 97.282 102.136 97.282C101.38 97.261 100.613 97.2505 99.8362 97.2505C99.0382 98.0905 98.1877 98.962 97.2847 99.865C96.3817 100.768 95.4997 101.618 94.6387 102.416C93.7987 103.214 93.0217 103.928 92.3077 104.558C91.5937 105.167 91.0477 105.619 90.6697 105.913C90.2497 106.69 90.0397 107.33 90.0397 107.834C90.0397 108.044 90.1027 108.191 90.2287 108.275C90.3757 108.338 90.5542 108.37 90.7642 108.37C90.9952 108.37 91.2577 108.338 91.5517 108.275C91.8457 108.191 92.1082 108.107 92.3392 108.023C92.5912 107.939 92.7907 107.866 92.9377 107.803C93.1057 107.74 93.1792 107.719 93.1582 107.74C93.3892 107.614 93.6937 107.446 94.0717 107.236C94.4497 107.026 94.8277 106.816 95.2057 106.606C95.5837 106.375 95.9302 106.175 96.2452 106.007C96.5602 105.818 96.7597 105.682 96.8437 105.598C96.9487 105.535 97.0222 105.503 97.0642 105.503C97.1482 105.503 97.1902 105.545 97.1902 105.629C97.1902 105.755 97.0747 105.881 96.8437 106.007C96.6127 106.154 96.3502 106.322 96.0562 106.511C95.8042 106.679 95.5102 106.858 95.1742 107.047C94.8592 107.236 94.5022 107.446 94.1032 107.677C93.2422 108.16 92.4652 108.538 91.7722 108.811C91.1002 109.063 90.5437 109.189 90.1027 109.189C89.4097 109.189 89.0632 108.863 89.0632 108.212C89.0632 107.729 89.3047 107.078 89.7877 106.259C90.2917 105.419 90.9322 104.495 91.7092 103.487C92.5072 102.479 93.3997 101.429 94.3867 100.337C95.3737 99.2245 96.3502 98.1745 97.3162 97.1875C96.7282 97.1665 96.1717 97.156 95.6467 97.156C95.1217 97.135 94.6597 97.1245 94.2607 97.1245C93.8827 97.1245 93.5782 97.1245 93.3472 97.1245C93.1162 97.1245 92.9902 97.1245 92.9692 97.1245C92.8222 97.1245 92.7172 97.0825 92.6542 96.9985C92.6122 96.8935 92.5912 96.7885 92.5912 96.6835C92.6122 96.4735 92.7907 96.3475 93.1267 96.3055C93.5467 96.3055 94.0297 96.316 94.5757 96.337C95.0377 96.358 95.5627 96.379 96.1507 96.4C96.7597 96.4 97.4002 96.4105 98.0722 96.4315C98.6812 95.8225 99.2587 95.266 99.8047 94.762C100.351 94.237 100.834 93.7855 101.254 93.4075C101.695 93.0295 102.062 92.7355 102.356 92.5255C102.671 92.3155 102.881 92.2105 102.986 92.2105C103.091 92.2105 103.165 92.2315 103.207 92.2735C103.27 92.3365 103.301 92.41 103.301 92.494C103.301 92.83 103.039 93.355 102.514 94.069C102.01 94.762 101.359 95.56 100.561 96.463C101.443 96.484 102.304 96.505 103.144 96.526C103.984 96.526 104.74 96.5365 105.412 96.5575C106.084 96.5575 106.63 96.568 107.05 96.589C107.47 96.589 107.701 96.589 107.743 96.589C107.869 96.589 107.932 96.652 107.932 96.778ZM101.758 93.754C101.758 93.691 101.737 93.6595 101.695 93.6595C101.611 93.6595 101.285 93.922 100.718 94.447C100.151 94.951 99.4582 95.6125 98.6392 96.4315C98.8492 96.4315 99.0487 96.4315 99.2377 96.4315C99.4267 96.4315 99.6367 96.442 99.8677 96.463C100.414 95.812 100.865 95.245 101.222 94.762C101.579 94.279 101.758 93.943 101.758 93.754ZM97.8517 97.219C97.2637 97.807 96.6547 98.437 96.0247 99.109C95.4157 99.76 94.8067 100.432 94.1977 101.125C93.6097 101.797 93.0532 102.469 92.5282 103.141C92.0032 103.813 91.5517 104.453 91.1737 105.062C91.5517 104.768 92.0557 104.338 92.6857 103.771C93.3367 103.183 94.0297 102.532 94.7647 101.818C95.4997 101.083 96.2557 100.316 97.0327 99.5185C97.8097 98.7205 98.5237 97.954 99.1747 97.219H97.8517ZM103.305 99.424C103.305 99.718 103.19 99.9805 102.959 100.211C102.728 100.421 102.444 100.526 102.108 100.526C102.003 100.526 101.919 100.505 101.856 100.463C101.814 100.4 101.772 100.348 101.73 100.306C101.688 100.243 101.667 100.18 101.667 100.117C101.667 99.907 101.804 99.676 102.077 99.424C102.35 99.172 102.612 99.046 102.864 99.046C103.158 99.046 103.305 99.172 103.305 99.424ZM103.652 105.535C103.652 105.661 103.536 105.787 103.305 105.913C103.011 106.102 102.675 106.312 102.297 106.543C101.982 106.732 101.625 106.952 101.226 107.204C100.827 107.435 100.397 107.677 99.9347 107.929C99.7877 108.013 99.5567 108.139 99.2417 108.307C98.9477 108.454 98.6222 108.611 98.2652 108.779C97.9292 108.926 97.5722 109.053 97.1942 109.158C96.8372 109.284 96.5117 109.347 96.2177 109.347C95.9237 109.347 95.6927 109.284 95.5247 109.158C95.3567 109.032 95.2727 108.811 95.2727 108.496C95.2727 108.076 95.4827 107.561 95.9027 106.952C96.3437 106.343 96.8267 105.755 97.3517 105.188C97.9607 104.516 98.6537 103.823 99.4307 103.109C99.5147 103.025 99.6092 102.983 99.7142 102.983C99.9032 102.983 99.9977 103.078 99.9977 103.267C99.9977 103.393 99.9557 103.498 99.8717 103.582C99.6827 103.792 99.3887 104.096 98.9897 104.495C98.6117 104.873 98.2232 105.283 97.8242 105.724C97.4462 106.165 97.1102 106.606 96.8162 107.047C96.5222 107.488 96.3752 107.866 96.3752 108.181C96.3752 108.475 96.5642 108.622 96.9422 108.622C97.1312 108.622 97.3517 108.59 97.6037 108.527C97.8767 108.443 98.1392 108.349 98.3912 108.244C98.6432 108.139 98.8742 108.034 99.0842 107.929C99.3152 107.803 99.4937 107.708 99.6197 107.645C99.8717 107.519 100.187 107.362 100.565 107.173C100.943 106.963 101.321 106.753 101.699 106.543C102.077 106.312 102.413 106.102 102.707 105.913C103.022 105.724 103.221 105.587 103.305 105.503C103.41 105.44 103.484 105.409 103.526 105.409C103.61 105.409 103.652 105.451 103.652 105.535ZM113.707 105.535C113.707 105.661 113.592 105.787 113.361 105.913C112.836 106.291 112.363 106.553 111.943 106.7C111.544 106.826 111.198 106.889 110.904 106.889C110.463 106.889 110.106 106.826 109.833 106.7C109.56 106.574 109.35 106.396 109.203 106.165C108.846 106.606 108.447 107.036 108.006 107.456C107.565 107.855 107.103 108.212 106.62 108.527C106.137 108.842 105.622 109.095 105.076 109.284C104.551 109.473 104.016 109.567 103.47 109.567C103.113 109.567 102.787 109.441 102.493 109.189C102.199 108.937 102.052 108.569 102.052 108.086C102.052 107.729 102.178 107.32 102.43 106.858C102.682 106.375 103.008 105.892 103.407 105.409C103.806 104.905 104.268 104.411 104.793 103.928C105.318 103.424 105.843 102.983 106.368 102.605C106.914 102.227 107.449 101.923 107.974 101.692C108.499 101.461 108.972 101.345 109.392 101.345C109.518 101.345 109.612 101.387 109.675 101.471C109.759 101.534 109.801 101.618 109.801 101.723C109.801 101.849 109.738 101.965 109.612 102.07C109.507 102.175 109.339 102.227 109.108 102.227C108.499 102.227 107.838 102.406 107.124 102.763C106.431 103.12 105.78 103.571 105.171 104.117C104.583 104.663 104.089 105.251 103.69 105.881C103.312 106.511 103.123 107.099 103.123 107.645C103.123 108.107 103.207 108.433 103.375 108.622C103.564 108.811 103.806 108.905 104.1 108.905C104.541 108.905 104.982 108.821 105.423 108.653C105.885 108.464 106.326 108.233 106.746 107.961C107.166 107.666 107.565 107.341 107.943 106.984C108.342 106.606 108.709 106.228 109.045 105.85C109.003 105.745 108.972 105.629 108.951 105.503C108.93 105.356 108.919 105.22 108.919 105.094C108.919 104.695 108.982 104.285 109.108 103.865C109.255 103.445 109.423 103.067 109.612 102.731C109.822 102.374 110.032 102.08 110.242 101.849C110.452 101.618 110.631 101.503 110.778 101.503C111.093 101.503 111.25 101.702 111.25 102.101C111.25 102.479 111.114 102.973 110.841 103.582C110.568 104.191 110.19 104.831 109.707 105.503C109.812 105.902 110.022 106.154 110.337 106.259C110.652 106.364 110.904 106.417 111.093 106.417C111.45 106.417 111.828 106.322 112.227 106.133C112.626 105.944 113.004 105.734 113.361 105.503C113.466 105.44 113.539 105.409 113.581 105.409C113.665 105.409 113.707 105.451 113.707 105.535ZM110.715 102.857C110.715 102.626 110.62 102.511 110.431 102.511C110.137 103.099 109.927 103.603 109.801 104.023C109.696 104.422 109.644 104.768 109.644 105.062C109.98 104.601 110.242 104.18 110.431 103.802C110.62 103.403 110.715 103.088 110.715 102.857ZM127.546 105.535C127.546 105.661 127.431 105.787 127.2 105.913C126.906 106.102 126.57 106.312 126.192 106.543C125.877 106.732 125.52 106.952 125.121 107.204C124.722 107.435 124.291 107.677 123.829 107.929C123.094 108.328 122.475 108.622 121.971 108.811C121.467 108.979 121.068 109.063 120.774 109.063C120.186 109.063 119.892 108.8 119.892 108.275C119.892 107.897 120.018 107.435 120.27 106.889C120.543 106.343 120.847 105.818 121.183 105.314C121.54 104.789 121.876 104.327 122.191 103.928C122.506 103.508 122.706 103.256 122.79 103.172C122.937 103.025 123.01 102.878 123.01 102.731C123.01 102.668 122.979 102.637 122.916 102.637C122.895 102.637 122.706 102.752 122.349 102.983C122.013 103.193 121.593 103.466 121.089 103.802C120.606 104.138 120.07 104.495 119.482 104.873C118.894 105.251 118.338 105.608 117.813 105.944C117.309 106.28 116.868 106.574 116.49 106.826C116.133 107.078 115.912 107.225 115.828 107.267C115.702 107.33 115.534 107.435 115.324 107.582C115.135 107.708 114.936 107.834 114.726 107.961C114.537 108.086 114.369 108.202 114.222 108.307C114.075 108.412 113.98 108.475 113.938 108.496C113.854 108.559 113.739 108.59 113.592 108.59C113.466 108.59 113.382 108.559 113.34 108.496C113.319 108.475 113.308 108.422 113.308 108.338C113.308 108.254 113.403 108.086 113.592 107.834L116.931 103.928C116.994 103.865 117.025 103.802 117.025 103.739C117.025 103.613 116.973 103.55 116.868 103.55C116.805 103.55 116.731 103.571 116.647 103.613C116.605 103.634 116.563 103.666 116.521 103.708C116.206 103.897 115.86 104.128 115.482 104.401C115.125 104.653 114.768 104.905 114.411 105.157C114.054 105.409 113.718 105.64 113.403 105.85C113.109 106.06 112.878 106.217 112.71 106.322C112.668 106.364 112.615 106.406 112.552 106.448C112.51 106.469 112.468 106.48 112.426 106.48C112.342 106.48 112.3 106.438 112.3 106.354C112.3 106.228 112.416 106.102 112.647 105.976C112.878 105.808 113.098 105.65 113.308 105.503C113.518 105.335 113.739 105.178 113.97 105.031C114.411 104.716 114.841 104.411 115.261 104.117C115.618 103.865 116.017 103.592 116.458 103.298C116.899 102.983 117.309 102.71 117.687 102.479C117.771 102.437 117.876 102.385 118.002 102.322C118.149 102.238 118.285 102.196 118.411 102.196C118.516 102.196 118.59 102.217 118.632 102.259C118.737 102.364 118.789 102.469 118.789 102.574C118.789 102.826 118.642 103.13 118.348 103.487C118.264 103.592 118.065 103.823 117.75 104.18C117.435 104.537 117.099 104.915 116.742 105.314C116.406 105.692 116.091 106.039 115.797 106.354C115.503 106.669 115.335 106.858 115.293 106.921C115.23 106.984 115.198 107.036 115.198 107.078C115.198 107.141 115.23 107.173 115.293 107.173C115.314 107.152 115.503 107.026 115.86 106.795C116.238 106.564 116.689 106.28 117.214 105.944C117.739 105.608 118.306 105.241 118.915 104.842C119.524 104.443 120.091 104.075 120.616 103.739C121.162 103.382 121.624 103.088 122.002 102.857C122.38 102.605 122.59 102.469 122.632 102.448C122.716 102.406 122.853 102.322 123.042 102.196C123.252 102.049 123.462 101.902 123.672 101.755C123.882 101.608 124.071 101.471 124.239 101.345C124.428 101.219 124.543 101.146 124.585 101.125C124.711 101.041 124.827 100.999 124.932 100.999C125.037 100.999 125.121 101.041 125.184 101.125C125.226 101.209 125.247 101.272 125.247 101.314C125.247 101.419 125.215 101.524 125.152 101.629C125.089 101.713 125.026 101.786 124.963 101.849C124.186 102.689 123.546 103.424 123.042 104.054C122.538 104.663 122.139 105.199 121.845 105.661C121.572 106.123 121.372 106.511 121.246 106.826C121.141 107.12 121.089 107.362 121.089 107.551C121.089 107.719 121.12 107.855 121.183 107.961C121.267 108.065 121.351 108.139 121.435 108.181C121.519 108.244 121.624 108.265 121.75 108.244C121.918 108.244 122.107 108.212 122.317 108.149C122.527 108.086 122.716 108.013 122.884 107.929C123.094 107.845 123.304 107.75 123.514 107.645C123.766 107.519 124.081 107.362 124.459 107.173C124.837 106.963 125.215 106.753 125.593 106.543C125.971 106.312 126.307 106.102 126.601 105.913C126.916 105.724 127.116 105.587 127.2 105.503C127.305 105.44 127.378 105.409 127.42 105.409C127.504 105.409 127.546 105.451 127.546 105.535Z" fill="#D2C8BC"/>
</svg>
