<svg width="185" height="355" viewBox="0 0 185 355" fill="none" xmlns="http://www.w3.org/2000/svg">
<path d="M176.946 95.2987C194.076 66.8079 175.043 54.3445 161.721 50.7826C148.398 47.2208 119.849 43.661 116.041 20.5141C113.815 6.96998 104.421 2.57464 97.0089 1.25519V0.92268C93.8413 0.69244 90.6593 0.69244 87.4916 0.92268V1.25093C80.0795 2.57038 70.6874 6.96572 68.459 20.5098C64.6516 43.6568 36.1038 47.2186 22.779 50.7784C9.45419 54.3381 -9.57576 66.8037 7.55417 95.2945C24.6841 123.785 45.619 148.71 39.9091 171.859C34.1991 195.008 -0.0608863 230.616 1.84396 275.13C3.7488 319.644 -5.77047 349.915 24.6842 351.695C46.1867 352.952 73.3624 353.321 87.4916 353.43V353.477C87.4916 353.477 89.2412 353.477 92.2511 353.46C95.261 353.443 97.0089 353.477 97.0089 353.477V353.43C111.136 353.321 138.316 352.952 159.818 351.695C190.271 349.915 180.753 319.644 182.656 275.13C184.559 230.616 150.301 195.006 144.591 171.859C138.881 148.712 159.816 123.787 176.946 95.2987Z" stroke="#CAE8F9" stroke-width="1.5" stroke-linecap="round" stroke-linejoin="round"/>
</svg>
