<svg width="209" height="272" viewBox="0 0 209 272" fill="none" xmlns="http://www.w3.org/2000/svg">
<path d="M8.52734 28.668V243.168" stroke="#231010" stroke-width="0.5"/>
<path d="M200.555 28.3047V243.527" stroke="#231010" stroke-width="0.5"/>
<path d="M0.5 0.320312V271.515M208.139 0.320312V271.515" stroke="#231010"/>
<path d="M208.5 0.5L0.5 0.5" stroke="#231010" stroke-dasharray="4 4"/>
<path d="M208.5 28.3047L0.5 28.3047" stroke="#231010" stroke-dasharray="4 4"/>
<path d="M208.5 243.168L0.5 243.168" stroke="#231010" stroke-dasharray="4 4"/>
<path d="M208.139 271.336L0.5 271.336" stroke="#231010" stroke-dasharray="4 4"/>
<path d="M77.0809 163.24V185.32H72.6649V167.88L66.2329 171.432V167.272L71.3529 164.232C72.5369 163.56 73.6889 163.24 74.9049 163.24H77.0809ZM92.3129 162.792C98.5529 162.792 100.889 167.304 100.889 174.28C100.889 181.192 98.5529 185.768 92.3129 185.768C86.0409 185.768 83.7049 181.192 83.7049 174.28C83.7049 167.304 86.0409 162.792 92.3129 162.792ZM92.3129 182.472C95.0009 182.472 96.2169 179.848 96.2169 174.28C96.2169 168.648 95.0009 166.088 92.3129 166.088C89.5929 166.088 88.3769 168.648 88.3769 174.28C88.3769 179.848 89.5929 182.472 92.3129 182.472ZM112.313 162.792C118.553 162.792 120.889 167.304 120.889 174.28C120.889 181.192 118.553 185.768 112.313 185.768C106.041 185.768 103.705 181.192 103.705 174.28C103.705 167.304 106.041 162.792 112.313 162.792ZM112.313 182.472C115.001 182.472 116.217 179.848 116.217 174.28C116.217 168.648 115.001 166.088 112.313 166.088C109.593 166.088 108.377 168.648 108.377 174.28C108.377 179.848 109.593 182.472 112.313 182.472ZM128.377 162.856C131.449 162.856 133.337 164.808 133.337 168.104C133.337 171.4 131.449 173.384 128.377 173.384C125.337 173.384 123.449 171.4 123.449 168.104C123.449 164.808 125.337 162.856 128.377 162.856ZM129.145 185.32H125.721L140.057 163.24H143.481L129.145 185.32ZM128.377 165.192C127.193 165.192 126.553 166.216 126.553 168.104C126.553 169.992 127.193 171.048 128.377 171.048C129.561 171.048 130.233 169.992 130.233 168.104C130.233 166.216 129.561 165.192 128.377 165.192ZM140.633 175.24C143.705 175.24 145.593 177.192 145.593 180.488C145.593 183.784 143.705 185.768 140.633 185.768C137.593 185.768 135.673 183.784 135.673 180.488C135.673 177.192 137.593 175.24 140.633 175.24ZM140.633 177.576C139.449 177.576 138.809 178.6 138.809 180.488C138.809 182.376 139.449 183.432 140.633 183.432C141.817 183.432 142.457 182.376 142.457 180.488C142.457 178.6 141.817 177.576 140.633 177.576ZM49.5388 200.792C55.5228 200.792 58.6268 204.056 59.0748 208.408L59.1068 208.728H54.6908L54.6268 208.408C54.0828 205.688 52.4188 204.088 49.4748 204.088C45.9228 204.088 43.5228 207.128 43.5228 212.152C43.5228 217.656 46.0508 220.472 49.4108 220.472C52.2908 220.472 53.9548 218.744 54.5308 215.992L54.5948 215.672H58.9788L58.9468 215.992C58.4668 220.696 54.8828 223.768 49.2188 223.768C43.0748 223.768 38.8508 219.448 38.8508 212.408C38.8508 205.176 43.4268 200.792 49.5388 200.792ZM72.7315 200.792C79.5155 200.792 83.6435 205.336 83.6435 212.28C83.6435 219.192 79.5155 223.768 72.7315 223.768C65.9155 223.768 61.8195 219.192 61.8195 212.28C61.8195 205.336 65.9155 200.792 72.7315 200.792ZM72.7315 220.472C76.6355 220.472 79.0035 217.432 79.0035 212.28C79.0035 207.096 76.6355 204.088 72.7315 204.088C68.7955 204.088 66.4275 207.096 66.4275 212.28C66.4275 217.432 68.7955 220.472 72.7315 220.472ZM103.753 204.696H96.265V223.32H91.849V204.696H84.361V201.24H103.753V204.696ZM123.691 204.696H116.203V223.32H111.786V204.696H104.299V201.24H123.691V204.696ZM135.544 200.792C142.328 200.792 146.456 205.336 146.456 212.28C146.456 219.192 142.328 223.768 135.544 223.768C128.728 223.768 124.632 219.192 124.632 212.28C124.632 205.336 128.728 200.792 135.544 200.792ZM135.544 220.472C139.448 220.472 141.816 217.432 141.816 212.28C141.816 207.096 139.448 204.088 135.544 204.088C131.608 204.088 129.24 207.096 129.24 212.28C129.24 217.432 131.608 220.472 135.544 220.472ZM169.709 223.32H163.661L154.573 206.552C154.701 208.952 154.733 211.48 154.733 213.336V223.32H150.317V201.24H156.173L165.453 218.328C165.325 215.96 165.293 213.272 165.293 211.384V201.24H169.677L169.709 223.32Z" fill="#231010"/>
<path d="M39.2728 77.3203H34.9948V55.9303H39.2728V77.3203ZM48.3556 63.7733V71.3993C48.3556 71.9573 48.3556 72.4223 48.3866 72.8563C48.5106 74.4683 49.0996 74.8403 51.4866 74.6543V77.4443C50.5256 77.5993 49.6266 77.6613 48.6656 77.6613C45.4726 77.6613 44.3256 76.6073 44.1396 74.2823C44.0776 73.5383 44.0776 72.8253 44.0776 71.8953V63.7733H41.6596V60.9523H44.0776V56.8913H48.3556V60.9523H51.7656V63.7733H48.3556ZM69.1423 68.7333C69.1423 69.1363 69.1423 69.6323 69.0803 70.1903H57.3623C57.6413 73.6623 59.1913 74.7473 61.1753 74.7473C63.0043 74.7473 64.3373 73.7243 64.6163 71.9573H68.8943C68.0573 75.8013 64.9573 77.7543 61.0823 77.7543C56.5563 77.7543 53.0533 74.9333 53.0533 69.1363C53.0533 64.0833 56.3703 60.3943 61.4233 60.3943C66.4763 60.3943 69.1423 64.2383 69.1423 68.7333ZM61.2373 63.4013C59.2533 63.4013 57.8583 64.6723 57.4863 67.4003H64.7403C64.4613 64.7963 63.2833 63.4013 61.2373 63.4013ZM96.5812 64.4863C96.7052 65.3233 96.7362 66.1603 96.7362 67.4933V77.3203H92.4582V68.7333C92.4582 67.7723 92.4272 66.8733 92.3342 66.0363C92.1172 64.3313 91.1872 63.4013 89.5442 63.4013C87.6222 63.4013 86.5372 65.0443 86.5372 68.8573V77.3203H82.2902V68.7333C82.2902 67.7723 82.2592 66.8733 82.1662 66.0363C81.9492 64.3313 80.9882 63.4013 79.3452 63.4013C77.4232 63.4013 76.3692 65.0443 76.3692 68.8573V77.3203H72.0912V60.8283H76.3692V63.3393L77.5782 61.3553C78.5082 60.7043 79.5932 60.3943 81.0812 60.3943C83.7782 60.3943 85.4832 61.7273 86.1342 63.5253L87.7462 61.3553C88.6762 60.7043 89.7922 60.3943 91.2802 60.3943C94.4112 60.3943 96.2092 62.2233 96.5812 64.4863ZM116.494 55.4963C122.291 55.4963 125.298 58.6583 125.732 62.8743L125.763 63.1843H121.485L121.423 62.8743C120.896 60.2393 119.284 58.6893 116.432 58.6893C112.991 58.6893 110.666 61.6343 110.666 66.5013C110.666 71.8333 113.115 74.5613 116.37 74.5613C119.16 74.5613 120.772 72.8873 121.33 70.2213L121.392 69.9113H125.639L125.608 70.2213C125.143 74.7783 121.671 77.7543 116.184 77.7543C110.232 77.7543 106.14 73.5693 106.14 66.7493C106.14 59.7433 110.573 55.4963 116.494 55.4963ZM138.342 77.3203L138.032 74.9023L137.226 76.6693C136.079 77.4443 134.684 77.7543 133.134 77.7543C130.282 77.7543 127.833 76.0803 127.833 72.9493C127.833 69.3223 130.933 67.2763 136.916 67.2763H137.97V66.9353C137.97 66.4393 137.97 65.9433 137.908 65.3853C137.784 64.2383 137.04 63.4013 135.366 63.4013C133.661 63.4013 132.731 64.3933 132.607 66.1913L128.453 66.2223C128.577 62.5023 131.584 60.3943 135.521 60.3943C140.14 60.3943 141.876 62.4093 142.124 65.2613C142.186 66.0363 142.217 66.9043 142.217 67.8033V73.1353C142.217 74.3753 142.279 75.4913 142.527 77.3203H138.342ZM134.777 74.7473C136.513 74.7473 137.97 73.5383 137.97 71.2443V69.9113C134.56 69.6633 132.266 70.4383 132.266 72.6083C132.266 74.0653 133.258 74.7473 134.777 74.7473ZM154.571 60.4253C155.067 60.4253 155.408 60.4563 155.78 60.5493V63.9903C152.215 63.7423 150.448 65.3233 150.448 69.7563V77.3203H146.17V60.8283H150.448V63.8353L151.75 61.5413C152.556 60.7973 153.641 60.4253 154.571 60.4253ZM172.768 68.7333C172.768 69.1363 172.768 69.6323 172.706 70.1903H160.988C161.267 73.6623 162.817 74.7473 164.801 74.7473C166.63 74.7473 167.963 73.7243 168.242 71.9573H172.52C171.683 75.8013 168.583 77.7543 164.708 77.7543C160.182 77.7543 156.679 74.9333 156.679 69.1363C156.679 64.0833 159.996 60.3943 165.049 60.3943C170.102 60.3943 172.768 64.2383 172.768 68.7333ZM164.863 63.4013C162.879 63.4013 161.484 64.6723 161.112 67.4003H168.366C168.087 64.7963 166.909 63.4013 164.863 63.4013Z" fill="#231010"/>
<path d="M42.5 133.918L12.5 114.918M42.5 114.918L12.5 133.918" stroke="#231010" stroke-width="0.5"/>
<circle cx="27.5833" cy="124.404" r="13.8333" stroke="#231010" stroke-width="0.5"/>
<circle cx="182.013" cy="125.404" r="13.8333" stroke="#231010" stroke-width="0.5"/>
<path d="M182.983 121.705C184.033 121.825 184.843 122.535 184.843 123.805C184.843 125.075 183.983 125.785 182.983 125.905C182.643 125.945 182.383 125.955 181.983 125.955H180.973V128.555H179.593V121.655H181.983C182.383 121.655 182.643 121.665 182.983 121.705ZM182.573 124.835C183.053 124.765 183.393 124.455 183.393 123.805C183.393 123.155 183.053 122.845 182.573 122.775C182.423 122.755 182.213 122.745 181.963 122.745H180.973V124.865H181.963C182.213 124.865 182.423 124.855 182.573 124.835Z" fill="#231010"/>
<path d="M80.125 111.32L79.7687 115.112M52.5 111.32L52.9326 115.112M52.9326 115.112L55.5694 138.223H77.5972L79.7687 115.112M52.9326 115.112C55.1976 114.12 56.3064 114.207 58.5 115.112C60.6212 116.219 61.806 116.337 64 115.82C66.1592 115.192 67.2294 114.818 69.1344 115.112C71.1823 115.63 72.3331 116.061 74.4515 115.112C76.6173 113.923 77.7801 113.934 79.7687 115.112" stroke="#231010" stroke-width="0.5"/>
<path d="M66.7854 126.913H65.9354V128.543H64.5554V126.913H61.2354V126.173L64.4654 121.643H65.9354V125.823H66.7854V126.913ZM64.5554 125.823V123.203C64.4054 123.463 64.2554 123.703 64.0954 123.933L62.7454 125.823H64.5554ZM70.2554 121.503C72.2054 121.503 72.9354 122.913 72.9354 125.093C72.9354 127.253 72.2054 128.683 70.2554 128.683C68.2954 128.683 67.5654 127.253 67.5654 125.093C67.5654 122.913 68.2954 121.503 70.2554 121.503ZM70.2554 127.653C71.0954 127.653 71.4754 126.833 71.4754 125.093C71.4754 123.333 71.0954 122.533 70.2554 122.533C69.4054 122.533 69.0254 123.333 69.0254 125.093C69.0254 126.833 69.4054 127.653 70.2554 127.653Z" fill="#231010"/>
<path d="M120.125 135.918L90.125 116.918M120.125 116.918L90.125 135.918" stroke="#231010" stroke-width="0.5"/>
<path d="M119.052 138.057H92.0527L105.377 110.881L119.052 138.057Z" stroke="#231010" stroke-width="0.5"/>
<path d="M141.319 111.32H155.042L156.486 124.952M156.486 124.952L157.931 138.584H130.125C130.723 131.214 131.8 127.426 138.15 125.171C139.161 124.812 140.239 124.69 141.312 124.708L156.486 124.952Z" stroke="#231010" stroke-width="0.5"/>
<circle cx="144.028" cy="131.903" r="1.80556" fill="#231010"/>
</svg>
