<svg width="209" height="272" viewBox="0 0 209 272" fill="none" xmlns="http://www.w3.org/2000/svg">
<path d="M8.52734 28.668V243.168" stroke="#231010" stroke-width="0.5"/>
<path d="M200.555 28.3047V243.527" stroke="#231010" stroke-width="0.5"/>
<path d="M0.5 0.320312V271.515M208.139 0.320312V271.515" stroke="#231010"/>
<path d="M208.5 0.5L0.5 0.5" stroke="#231010" stroke-dasharray="4 4"/>
<path d="M208.5 28.3047L0.5 28.3047" stroke="#231010" stroke-dasharray="4 4"/>
<path d="M208.5 243.168L0.5 243.168" stroke="#231010" stroke-dasharray="4 4"/>
<path d="M208.139 271.336L0.5 271.336" stroke="#231010" stroke-dasharray="4 4"/>
<path d="M39.2728 77.3203H34.9948V55.9303H39.2728V77.3203ZM48.3556 63.7733V71.3993C48.3556 71.9573 48.3556 72.4223 48.3866 72.8563C48.5106 74.4683 49.0996 74.8403 51.4866 74.6543V77.4443C50.5256 77.5993 49.6266 77.6613 48.6656 77.6613C45.4726 77.6613 44.3256 76.6073 44.1396 74.2823C44.0776 73.5383 44.0776 72.8253 44.0776 71.8953V63.7733H41.6596V60.9523H44.0776V56.8913H48.3556V60.9523H51.7656V63.7733H48.3556ZM69.1423 68.7333C69.1423 69.1363 69.1423 69.6323 69.0803 70.1903H57.3623C57.6413 73.6623 59.1913 74.7473 61.1753 74.7473C63.0043 74.7473 64.3373 73.7243 64.6163 71.9573H68.8943C68.0573 75.8013 64.9573 77.7543 61.0823 77.7543C56.5563 77.7543 53.0533 74.9333 53.0533 69.1363C53.0533 64.0833 56.3703 60.3943 61.4233 60.3943C66.4763 60.3943 69.1423 64.2383 69.1423 68.7333ZM61.2373 63.4013C59.2533 63.4013 57.8583 64.6723 57.4863 67.4003H64.7403C64.4613 64.7963 63.2833 63.4013 61.2373 63.4013ZM96.5812 64.4863C96.7052 65.3233 96.7362 66.1603 96.7362 67.4933V77.3203H92.4582V68.7333C92.4582 67.7723 92.4272 66.8733 92.3342 66.0363C92.1172 64.3313 91.1872 63.4013 89.5442 63.4013C87.6222 63.4013 86.5372 65.0443 86.5372 68.8573V77.3203H82.2902V68.7333C82.2902 67.7723 82.2592 66.8733 82.1662 66.0363C81.9492 64.3313 80.9882 63.4013 79.3452 63.4013C77.4232 63.4013 76.3692 65.0443 76.3692 68.8573V77.3203H72.0912V60.8283H76.3692V63.3393L77.5782 61.3553C78.5082 60.7043 79.5932 60.3943 81.0812 60.3943C83.7782 60.3943 85.4832 61.7273 86.1342 63.5253L87.7462 61.3553C88.6762 60.7043 89.7922 60.3943 91.2802 60.3943C94.4112 60.3943 96.2092 62.2233 96.5812 64.4863ZM116.494 55.4963C122.291 55.4963 125.298 58.6583 125.732 62.8743L125.763 63.1843H121.485L121.423 62.8743C120.896 60.2393 119.284 58.6893 116.432 58.6893C112.991 58.6893 110.666 61.6343 110.666 66.5013C110.666 71.8333 113.115 74.5613 116.37 74.5613C119.16 74.5613 120.772 72.8873 121.33 70.2213L121.392 69.9113H125.639L125.608 70.2213C125.143 74.7783 121.671 77.7543 116.184 77.7543C110.232 77.7543 106.14 73.5693 106.14 66.7493C106.14 59.7433 110.573 55.4963 116.494 55.4963ZM138.342 77.3203L138.032 74.9023L137.226 76.6693C136.079 77.4443 134.684 77.7543 133.134 77.7543C130.282 77.7543 127.833 76.0803 127.833 72.9493C127.833 69.3223 130.933 67.2763 136.916 67.2763H137.97V66.9353C137.97 66.4393 137.97 65.9433 137.908 65.3853C137.784 64.2383 137.04 63.4013 135.366 63.4013C133.661 63.4013 132.731 64.3933 132.607 66.1913L128.453 66.2223C128.577 62.5023 131.584 60.3943 135.521 60.3943C140.14 60.3943 141.876 62.4093 142.124 65.2613C142.186 66.0363 142.217 66.9043 142.217 67.8033V73.1353C142.217 74.3753 142.279 75.4913 142.527 77.3203H138.342ZM134.777 74.7473C136.513 74.7473 137.97 73.5383 137.97 71.2443V69.9113C134.56 69.6633 132.266 70.4383 132.266 72.6083C132.266 74.0653 133.258 74.7473 134.777 74.7473ZM154.571 60.4253C155.067 60.4253 155.408 60.4563 155.78 60.5493V63.9903C152.215 63.7423 150.448 65.3233 150.448 69.7563V77.3203H146.17V60.8283H150.448V63.8353L151.75 61.5413C152.556 60.7973 153.641 60.4253 154.571 60.4253ZM172.768 68.7333C172.768 69.1363 172.768 69.6323 172.706 70.1903H160.988C161.267 73.6623 162.817 74.7473 164.801 74.7473C166.63 74.7473 167.963 73.7243 168.242 71.9573H172.52C171.683 75.8013 168.583 77.7543 164.708 77.7543C160.182 77.7543 156.679 74.9333 156.679 69.1363C156.679 64.0833 159.996 60.3943 165.049 60.3943C170.102 60.3943 172.768 64.2383 172.768 68.7333ZM164.863 63.4013C162.879 63.4013 161.484 64.6723 161.112 67.4003H168.366C168.087 64.7963 166.909 63.4013 164.863 63.4013Z" fill="#231010"/>
<path d="M41.2833 169.76V186.32H37.9713V173.24L33.1473 175.904V172.784L36.9873 170.504C37.8753 170 38.7393 169.76 39.6513 169.76H41.2833ZM52.7073 169.424C57.3873 169.424 59.1393 172.808 59.1393 178.04C59.1393 183.224 57.3873 186.656 52.7073 186.656C48.0033 186.656 46.2513 183.224 46.2513 178.04C46.2513 172.808 48.0033 169.424 52.7073 169.424ZM52.7073 184.184C54.7233 184.184 55.6353 182.216 55.6353 178.04C55.6353 173.816 54.7233 171.896 52.7073 171.896C50.6673 171.896 49.7553 173.816 49.7553 178.04C49.7553 182.216 50.6673 184.184 52.7073 184.184ZM67.7073 169.424C72.3873 169.424 74.1393 172.808 74.1393 178.04C74.1393 183.224 72.3873 186.656 67.7073 186.656C63.0033 186.656 61.2513 183.224 61.2513 178.04C61.2513 172.808 63.0033 169.424 67.7073 169.424ZM67.7073 184.184C69.7233 184.184 70.6353 182.216 70.6353 178.04C70.6353 173.816 69.7233 171.896 67.7073 171.896C65.6673 171.896 64.7553 173.816 64.7553 178.04C64.7553 182.216 65.6673 184.184 67.7073 184.184ZM79.7553 169.472C82.0593 169.472 83.4753 170.936 83.4753 173.408C83.4753 175.88 82.0593 177.368 79.7553 177.368C77.4753 177.368 76.0593 175.88 76.0593 173.408C76.0593 170.936 77.4753 169.472 79.7553 169.472ZM80.3313 186.32H77.7633L88.5153 169.76H91.0833L80.3313 186.32ZM79.7553 171.224C78.8673 171.224 78.3873 171.992 78.3873 173.408C78.3873 174.824 78.8673 175.616 79.7553 175.616C80.6433 175.616 81.1473 174.824 81.1473 173.408C81.1473 171.992 80.6433 171.224 79.7553 171.224ZM88.9473 178.76C91.2513 178.76 92.6673 180.224 92.6673 182.696C92.6673 185.168 91.2513 186.656 88.9473 186.656C86.6673 186.656 85.2273 185.168 85.2273 182.696C85.2273 180.224 86.6673 178.76 88.9473 178.76ZM88.9473 180.512C88.0593 180.512 87.5793 181.28 87.5793 182.696C87.5793 184.112 88.0593 184.904 88.9473 184.904C89.8353 184.904 90.3153 184.112 90.3153 182.696C90.3153 181.28 89.8353 180.512 88.9473 180.512ZM126.612 169.76L122.22 186.32H117.828L114.996 172.544L112.02 186.32H107.604L103.452 169.76H107.028L109.812 183.776L112.74 170H117.396L120.228 183.824L123.204 169.76H126.612ZM136.025 169.424C141.113 169.424 144.209 172.832 144.209 178.04C144.209 183.224 141.113 186.656 136.025 186.656C130.913 186.656 127.841 183.224 127.841 178.04C127.841 172.832 130.913 169.424 136.025 169.424ZM136.025 184.184C138.953 184.184 140.729 181.904 140.729 178.04C140.729 174.152 138.953 171.896 136.025 171.896C133.073 171.896 131.297 174.152 131.297 178.04C131.297 181.904 133.073 184.184 136.025 184.184ZM154.377 169.424C159.465 169.424 162.561 172.832 162.561 178.04C162.561 183.224 159.465 186.656 154.377 186.656C149.265 186.656 146.193 183.224 146.193 178.04C146.193 172.832 149.265 169.424 154.377 169.424ZM154.377 184.184C157.305 184.184 159.081 181.904 159.081 178.04C159.081 174.152 157.305 171.896 154.377 171.896C151.425 171.896 149.649 174.152 149.649 178.04C149.649 181.904 151.425 184.184 154.377 184.184ZM177.408 183.56V186.32H165.456V169.76H168.768V183.56H177.408ZM43.4109 205.624V208.216H41.1549V215.08C39.5229 215.416 37.6509 215.656 35.5149 215.656C31.6509 215.656 28.8189 214.6 28.8189 211.096C28.8189 208.864 30.3549 207.304 32.7549 206.848C30.9309 206.368 29.6829 204.976 29.6829 203.152C29.6829 200.176 32.0589 198.424 35.8749 198.424C36.9309 198.424 37.7229 198.496 38.4909 198.664V201.112C37.5069 200.944 36.8589 200.896 35.8989 200.896C34.1469 200.896 33.1869 201.712 33.1869 203.224C33.1869 204.904 34.2189 205.528 35.5629 205.6C35.9949 205.624 36.5229 205.624 36.9789 205.624H37.8429V203.392H41.1549V205.624H43.4109ZM32.3469 210.664C32.3469 212.56 33.4749 213.184 35.5869 213.184C36.4029 213.184 36.9789 213.16 37.8429 212.992V208.216H36.7629C36.2349 208.216 35.8989 208.216 35.4189 208.264C33.3069 208.408 32.3469 209.32 32.3469 210.664ZM57.5994 198.424C62.0874 198.424 64.4154 200.872 64.7514 204.136L64.7754 204.376H61.4634L61.4154 204.136C61.0074 202.096 59.7594 200.896 57.5514 200.896C54.8874 200.896 53.0874 203.176 53.0874 206.944C53.0874 211.072 54.9834 213.184 57.5034 213.184C59.6634 213.184 60.9114 211.888 61.3434 209.824L61.3914 209.584H64.6794L64.6554 209.824C64.2954 213.352 61.6074 215.656 57.3594 215.656C52.7514 215.656 49.5834 212.416 49.5834 207.136C49.5834 201.712 53.0154 198.424 57.5994 198.424ZM76.1354 210.328H70.5674L68.9114 215.32H65.3834L71.3594 198.76H75.5114L81.3674 215.32H77.7674L76.1354 210.328ZM73.3754 201.592L71.4074 207.712H75.2954L73.3754 201.592ZM88.6164 198.424C92.5764 198.424 94.3764 200.68 94.7364 203.632H91.3524C91.1604 201.952 90.2244 200.896 88.4964 200.896C87.1764 200.896 86.1684 201.52 86.1684 202.864C86.1684 204.256 87.0564 204.952 89.6964 205.576C93.3444 206.416 94.9764 208.096 94.9764 210.76C94.9764 213.88 92.1204 215.656 88.8564 215.656C84.8964 215.656 82.3044 213.904 81.9924 210.424H85.3764C85.7364 212.248 87.1284 213.184 88.8084 213.184C90.3204 213.184 91.5204 212.368 91.5204 211.096C91.5204 209.704 90.6564 208.888 88.2084 208.312C84.8244 207.496 82.6884 206.32 82.6884 203.272C82.6884 200.224 85.4484 198.424 88.6164 198.424ZM112.074 198.76V215.32H108.786V208.528H101.034V215.32H97.7219V198.76H101.034V205.888H108.786V198.76H112.074ZM133.625 198.76V215.32H130.313V207.664C130.313 205.936 130.313 203.728 130.361 202C129.953 203.728 129.353 205.936 128.825 207.64L126.497 215.32H122.897L120.521 207.616C120.017 205.936 119.417 203.728 119.033 202.024C119.081 203.752 119.081 205.936 119.081 207.664V215.32H115.769V198.76H121.001L124.745 212.272L128.489 198.76H133.625ZM149.26 212.704V215.32H137.308V198.76H149.02V201.352H140.62V205.72H148.42V208.336H140.62V212.704H149.26ZM164.097 211.144C164.313 213.16 164.625 214.384 165.297 215.32H161.673C161.265 214.192 161.025 213.184 160.857 211.624C160.641 209.848 159.969 208.768 158.625 208.672C158.169 208.648 157.761 208.648 157.329 208.648H155.409V215.32H152.097V198.76H158.145C159.105 198.76 159.729 198.784 160.545 198.88C162.945 199.168 164.889 200.416 164.889 203.272C164.889 205.408 163.617 206.752 161.649 207.304C163.281 207.928 163.905 209.296 164.097 211.144ZM155.409 206.176H157.689C158.265 206.176 158.673 206.176 159.033 206.152C160.353 206.032 161.409 205.384 161.409 203.776C161.409 202.168 160.521 201.592 159.225 201.424C158.841 201.376 158.433 201.352 157.833 201.352H155.409V206.176ZM179.752 212.704V215.32H167.8V198.76H179.512V201.352H171.112V205.72H178.912V208.336H171.112V212.704H179.752Z" fill="#231010"/>
<path d="M42.5 133.918L12.5 114.918M42.5 114.918L12.5 133.918" stroke="#231010" stroke-width="0.5"/>
<circle cx="27.5833" cy="124.404" r="13.8333" stroke="#231010" stroke-width="0.5"/>
<circle cx="182.013" cy="125.404" r="13.8333" stroke="#231010" stroke-width="0.5"/>
<path d="M182.983 121.705C184.033 121.825 184.843 122.535 184.843 123.805C184.843 125.075 183.983 125.785 182.983 125.905C182.643 125.945 182.383 125.955 181.983 125.955H180.973V128.555H179.593V121.655H181.983C182.383 121.655 182.643 121.665 182.983 121.705ZM182.573 124.835C183.053 124.765 183.393 124.455 183.393 123.805C183.393 123.155 183.053 122.845 182.573 122.775C182.423 122.755 182.213 122.745 181.963 122.745H180.973V124.865H181.963C182.213 124.865 182.423 124.855 182.573 124.835Z" fill="#231010"/>
<path d="M80.125 111.32L79.7687 115.112M52.5 111.32L52.9326 115.112M52.9326 115.112L55.5694 138.223H77.5972L79.7687 115.112M52.9326 115.112C55.1976 114.12 56.3064 114.207 58.5 115.112C60.6212 116.219 61.806 116.337 64 115.82C66.1592 115.192 67.2294 114.818 69.1344 115.112C71.1823 115.63 72.3331 116.061 74.4515 115.112C76.6173 113.923 77.7801 113.934 79.7687 115.112" stroke="#231010" stroke-width="0.5"/>
<path d="M66.7854 126.913H65.9354V128.543H64.5554V126.913H61.2354V126.173L64.4654 121.643H65.9354V125.823H66.7854V126.913ZM64.5554 125.823V123.203C64.4054 123.463 64.2554 123.703 64.0954 123.933L62.7454 125.823H64.5554ZM70.2554 121.503C72.2054 121.503 72.9354 122.913 72.9354 125.093C72.9354 127.253 72.2054 128.683 70.2554 128.683C68.2954 128.683 67.5654 127.253 67.5654 125.093C67.5654 122.913 68.2954 121.503 70.2554 121.503ZM70.2554 127.653C71.0954 127.653 71.4754 126.833 71.4754 125.093C71.4754 123.333 71.0954 122.533 70.2554 122.533C69.4054 122.533 69.0254 123.333 69.0254 125.093C69.0254 126.833 69.4054 127.653 70.2554 127.653Z" fill="#231010"/>
<path d="M120.125 135.918L90.125 116.918M120.125 116.918L90.125 135.918" stroke="#231010" stroke-width="0.5"/>
<path d="M119.052 138.057H92.0527L105.377 110.881L119.052 138.057Z" stroke="#231010" stroke-width="0.5"/>
<path d="M141.319 111.32H155.042L156.486 124.952M156.486 124.952L157.931 138.584H130.125C130.723 131.214 131.8 127.426 138.15 125.171C139.161 124.812 140.239 124.69 141.312 124.708L156.486 124.952Z" stroke="#231010" stroke-width="0.5"/>
<circle cx="144.028" cy="131.903" r="1.80556" fill="#231010"/>
</svg>
