<svg width="209" height="272" viewBox="0 0 209 272" fill="none" xmlns="http://www.w3.org/2000/svg">
<path d="M8.52734 28.668V243.168" stroke="#231010" stroke-width="0.5"/>
<path d="M200.555 28.3047V243.527" stroke="#231010" stroke-width="0.5"/>
<path d="M0.5 0.320312V271.515M208.139 0.320312V271.515" stroke="#231010"/>
<path d="M208.5 0.5L0.5 0.5" stroke="#231010" stroke-dasharray="4 4"/>
<path d="M208.5 28.3047L0.5 28.3047" stroke="#231010" stroke-dasharray="4 4"/>
<path d="M208.5 243.168L0.5 243.168" stroke="#231010" stroke-dasharray="4 4"/>
<path d="M208.139 271.336L0.5 271.336" stroke="#231010" stroke-dasharray="4 4"/>
<path d="M42.5 133.918L12.5 114.918M42.5 114.918L12.5 133.918" stroke="#231010" stroke-width="0.5"/>
<circle cx="27.5833" cy="124.404" r="13.8333" stroke="#231010" stroke-width="0.5"/>
<circle cx="182.013" cy="125.404" r="13.8333" stroke="#231010" stroke-width="0.5"/>
<path d="M182.983 121.705C184.033 121.825 184.843 122.535 184.843 123.805C184.843 125.075 183.983 125.785 182.983 125.905C182.643 125.945 182.383 125.955 181.983 125.955H180.973V128.555H179.593V121.655H181.983C182.383 121.655 182.643 121.665 182.983 121.705ZM182.573 124.835C183.053 124.765 183.393 124.455 183.393 123.805C183.393 123.155 183.053 122.845 182.573 122.775C182.423 122.755 182.213 122.745 181.963 122.745H180.973V124.865H181.963C182.213 124.865 182.423 124.855 182.573 124.835Z" fill="#231010"/>
<path d="M39.2728 77.3203H34.9948V55.9303H39.2728V77.3203ZM48.3556 63.7733V71.3993C48.3556 71.9573 48.3556 72.4223 48.3866 72.8563C48.5106 74.4683 49.0996 74.8403 51.4866 74.6543V77.4443C50.5256 77.5993 49.6266 77.6613 48.6656 77.6613C45.4726 77.6613 44.3256 76.6073 44.1396 74.2823C44.0776 73.5383 44.0776 72.8253 44.0776 71.8953V63.7733H41.6596V60.9523H44.0776V56.8913H48.3556V60.9523H51.7656V63.7733H48.3556ZM69.1423 68.7333C69.1423 69.1363 69.1423 69.6323 69.0803 70.1903H57.3623C57.6413 73.6623 59.1913 74.7473 61.1753 74.7473C63.0043 74.7473 64.3373 73.7243 64.6163 71.9573H68.8943C68.0573 75.8013 64.9573 77.7543 61.0823 77.7543C56.5563 77.7543 53.0533 74.9333 53.0533 69.1363C53.0533 64.0833 56.3703 60.3943 61.4233 60.3943C66.4763 60.3943 69.1423 64.2383 69.1423 68.7333ZM61.2373 63.4013C59.2533 63.4013 57.8583 64.6723 57.4863 67.4003H64.7403C64.4613 64.7963 63.2833 63.4013 61.2373 63.4013ZM96.5812 64.4863C96.7052 65.3233 96.7362 66.1603 96.7362 67.4933V77.3203H92.4582V68.7333C92.4582 67.7723 92.4272 66.8733 92.3342 66.0363C92.1172 64.3313 91.1872 63.4013 89.5442 63.4013C87.6222 63.4013 86.5372 65.0443 86.5372 68.8573V77.3203H82.2902V68.7333C82.2902 67.7723 82.2592 66.8733 82.1662 66.0363C81.9492 64.3313 80.9882 63.4013 79.3452 63.4013C77.4232 63.4013 76.3692 65.0443 76.3692 68.8573V77.3203H72.0912V60.8283H76.3692V63.3393L77.5782 61.3553C78.5082 60.7043 79.5932 60.3943 81.0812 60.3943C83.7782 60.3943 85.4832 61.7273 86.1342 63.5253L87.7462 61.3553C88.6762 60.7043 89.7922 60.3943 91.2802 60.3943C94.4112 60.3943 96.2092 62.2233 96.5812 64.4863ZM116.494 55.4963C122.291 55.4963 125.298 58.6583 125.732 62.8743L125.763 63.1843H121.485L121.423 62.8743C120.896 60.2393 119.284 58.6893 116.432 58.6893C112.991 58.6893 110.666 61.6343 110.666 66.5013C110.666 71.8333 113.115 74.5613 116.37 74.5613C119.16 74.5613 120.772 72.8873 121.33 70.2213L121.392 69.9113H125.639L125.608 70.2213C125.143 74.7783 121.671 77.7543 116.184 77.7543C110.232 77.7543 106.14 73.5693 106.14 66.7493C106.14 59.7433 110.573 55.4963 116.494 55.4963ZM138.342 77.3203L138.032 74.9023L137.226 76.6693C136.079 77.4443 134.684 77.7543 133.134 77.7543C130.282 77.7543 127.833 76.0803 127.833 72.9493C127.833 69.3223 130.933 67.2763 136.916 67.2763H137.97V66.9353C137.97 66.4393 137.97 65.9433 137.908 65.3853C137.784 64.2383 137.04 63.4013 135.366 63.4013C133.661 63.4013 132.731 64.3933 132.607 66.1913L128.453 66.2223C128.577 62.5023 131.584 60.3943 135.521 60.3943C140.14 60.3943 141.876 62.4093 142.124 65.2613C142.186 66.0363 142.217 66.9043 142.217 67.8033V73.1353C142.217 74.3753 142.279 75.4913 142.527 77.3203H138.342ZM134.777 74.7473C136.513 74.7473 137.97 73.5383 137.97 71.2443V69.9113C134.56 69.6633 132.266 70.4383 132.266 72.6083C132.266 74.0653 133.258 74.7473 134.777 74.7473ZM154.571 60.4253C155.067 60.4253 155.408 60.4563 155.78 60.5493V63.9903C152.215 63.7423 150.448 65.3233 150.448 69.7563V77.3203H146.17V60.8283H150.448V63.8353L151.75 61.5413C152.556 60.7973 153.641 60.4253 154.571 60.4253ZM172.768 68.7333C172.768 69.1363 172.768 69.6323 172.706 70.1903H160.988C161.267 73.6623 162.817 74.7473 164.801 74.7473C166.63 74.7473 167.963 73.7243 168.242 71.9573H172.52C171.683 75.8013 168.583 77.7543 164.708 77.7543C160.182 77.7543 156.679 74.9333 156.679 69.1363C156.679 64.0833 159.996 60.3943 165.049 60.3943C170.102 60.3943 172.768 64.2383 172.768 68.7333ZM164.863 63.4013C162.879 63.4013 161.484 64.6723 161.112 67.4003H168.366C168.087 64.7963 166.909 63.4013 164.863 63.4013Z" fill="#231010"/>
<path d="M77.0809 167.24V189.32H72.6649V171.88L66.2329 175.432V171.272L71.3529 168.232C72.5369 167.56 73.6889 167.24 74.9049 167.24H77.0809ZM92.3129 166.792C98.5529 166.792 100.889 171.304 100.889 178.28C100.889 185.192 98.5529 189.768 92.3129 189.768C86.0409 189.768 83.7049 185.192 83.7049 178.28C83.7049 171.304 86.0409 166.792 92.3129 166.792ZM92.3129 186.472C95.0009 186.472 96.2169 183.848 96.2169 178.28C96.2169 172.648 95.0009 170.088 92.3129 170.088C89.5929 170.088 88.3769 172.648 88.3769 178.28C88.3769 183.848 89.5929 186.472 92.3129 186.472ZM112.313 166.792C118.553 166.792 120.889 171.304 120.889 178.28C120.889 185.192 118.553 189.768 112.313 189.768C106.041 189.768 103.705 185.192 103.705 178.28C103.705 171.304 106.041 166.792 112.313 166.792ZM112.313 186.472C115.001 186.472 116.217 183.848 116.217 178.28C116.217 172.648 115.001 170.088 112.313 170.088C109.593 170.088 108.377 172.648 108.377 178.28C108.377 183.848 109.593 186.472 112.313 186.472ZM128.377 166.856C131.449 166.856 133.337 168.808 133.337 172.104C133.337 175.4 131.449 177.384 128.377 177.384C125.337 177.384 123.449 175.4 123.449 172.104C123.449 168.808 125.337 166.856 128.377 166.856ZM129.145 189.32H125.721L140.057 167.24H143.481L129.145 189.32ZM128.377 169.192C127.193 169.192 126.553 170.216 126.553 172.104C126.553 173.992 127.193 175.048 128.377 175.048C129.561 175.048 130.233 173.992 130.233 172.104C130.233 170.216 129.561 169.192 128.377 169.192ZM140.633 179.24C143.705 179.24 145.593 181.192 145.593 184.488C145.593 187.784 143.705 189.768 140.633 189.768C137.593 189.768 135.673 187.784 135.673 184.488C135.673 181.192 137.593 179.24 140.633 179.24ZM140.633 181.576C139.449 181.576 138.809 182.6 138.809 184.488C138.809 186.376 139.449 187.432 140.633 187.432C141.817 187.432 142.457 186.376 142.457 184.488C142.457 182.6 141.817 181.576 140.633 181.576ZM59.1961 227.32H53.6601L45.8521 205.24H50.6521L56.5081 223.928L62.4601 205.24H67.1641L59.1961 227.32ZM85.6434 223.832V227.32H69.7074V205.24H85.3234V208.696H74.1234V214.52H84.5234V218.008H74.1234V223.832H85.6434ZM105.362 223.64V227.32H89.4261V205.24H93.8421V223.64H105.362ZM116.852 227.32H111.316L103.508 205.24H108.308L114.164 223.928L120.116 205.24H124.82L116.852 227.32ZM143.3 223.832V227.32H127.364V205.24H142.98V208.696H131.78V214.52H142.18V218.008H131.78V223.832H143.3ZM164.362 208.696H156.874V227.32H152.458V208.696H144.97V205.24H164.362V208.696Z" fill="#231010"/>
<path d="M80.125 111.32L79.7687 115.112M52.5 111.32L52.9326 115.112M52.9326 115.112L55.5694 138.223H77.5972L79.7687 115.112M52.9326 115.112C55.1976 114.12 56.3064 114.207 58.5 115.112C60.6212 116.219 61.806 116.337 64 115.82C66.1592 115.192 67.2294 114.818 69.1344 115.112C71.1823 115.63 72.3331 116.061 74.4515 115.112C76.6173 113.923 77.7801 113.934 79.7687 115.112" stroke="#231010" stroke-width="0.5"/>
<path d="M66.7854 126.913H65.9354V128.543H64.5554V126.913H61.2354V126.173L64.4654 121.643H65.9354V125.823H66.7854V126.913ZM64.5554 125.823V123.203C64.4054 123.463 64.2554 123.703 64.0954 123.933L62.7454 125.823H64.5554ZM70.2554 121.503C72.2054 121.503 72.9354 122.913 72.9354 125.093C72.9354 127.253 72.2054 128.683 70.2554 128.683C68.2954 128.683 67.5654 127.253 67.5654 125.093C67.5654 122.913 68.2954 121.503 70.2554 121.503ZM70.2554 127.653C71.0954 127.653 71.4754 126.833 71.4754 125.093C71.4754 123.333 71.0954 122.533 70.2554 122.533C69.4054 122.533 69.0254 123.333 69.0254 125.093C69.0254 126.833 69.4054 127.653 70.2554 127.653Z" fill="#231010"/>
<path d="M120.125 135.918L90.125 116.918M120.125 116.918L90.125 135.918" stroke="#231010" stroke-width="0.5"/>
<path d="M119.052 138.057H92.0527L105.377 110.881L119.052 138.057Z" stroke="#231010" stroke-width="0.5"/>
<path d="M141.319 111.32H155.042L156.486 124.952M156.486 124.952L157.931 138.584H130.125C130.723 131.214 131.8 127.426 138.15 125.171C139.161 124.812 140.239 124.69 141.312 124.708L156.486 124.952Z" stroke="#231010" stroke-width="0.5"/>
<circle cx="144.028" cy="131.903" r="1.80556" fill="#231010"/>
</svg>
