<svg width="55" height="50" viewBox="0 0 55 50" fill="none" xmlns="http://www.w3.org/2000/svg">
<path d="M7 2V48.3756H39.1672V47.264H39.1734V47.2577H39.1672V47.0933L32.7531 46.8835C32.4169 46.8616 32.0822 46.8506 31.7522 46.8224C26.4001 46.2995 21.5876 44.4597 17.8246 41.5193C13.5564 38.2203 10.5535 33.166 9.56812 27.7642C9.53527 27.5764 9.50243 27.39 9.47428 27.2021C9.44612 27.0143 9.41954 26.8279 9.39764 26.64C9.38669 26.5743 9.38044 26.5085 9.37575 26.4475C9.35854 26.3206 9.3429 26.2001 9.33195 26.0732C9.19432 24.7627 9.20058 23.4412 9.34916 22.1417C9.45864 21.1834 9.64006 20.2315 9.88874 19.2999C10.0545 18.7049 10.2406 18.1162 10.4612 17.5321C10.5331 17.3396 10.6098 17.147 10.6864 16.9591C10.9992 16.1934 11.3636 15.445 11.775 14.7232C11.8735 14.5416 11.9783 14.3646 12.0878 14.1893C12.1925 14.0139 12.302 13.837 12.4178 13.6601C12.5335 13.4831 12.6539 13.3078 12.7697 13.1371C13.0058 12.7958 13.2545 12.4701 13.5126 12.146C13.6393 11.9816 13.7706 11.8219 13.9083 11.6622C14.9859 10.3955 16.2246 9.25564 17.6103 8.29271C17.7808 8.17215 17.9575 8.05628 18.1327 7.94042C18.3094 7.82455 18.4908 7.71495 18.6723 7.60535C18.8709 7.48479 19.0633 7.36892 19.2666 7.25306C19.6623 7.02759 20.0689 6.81308 20.4818 6.61423C20.6914 6.51559 20.8994 6.42165 21.109 6.3277C24.8611 4.69307 29.0949 4.22961 33.0831 5.07824C34.1827 5.28805 35.2556 5.62938 35.9594 5.87677C36.7398 6.17426 37.4999 6.54847 37.9942 6.81778C42.5595 9.33392 45.722 14.1862 46.2506 19.483C46.7621 24.0362 45.2168 28.4641 41.9981 31.6191C38.8841 34.6645 34.6049 36.0736 30.2491 35.4786C27.1805 35.0653 24.3637 33.5731 22.5213 31.3764C21.7675 30.4902 21.1794 29.5038 20.7446 28.4751C20.6836 28.3263 20.6242 28.1776 20.5679 28.0289C20.4693 27.7533 20.3802 27.473 20.3035 27.1865C19.6545 24.8629 19.7921 22.3797 20.7931 20.1814C22.4259 16.3876 26.4204 13.9153 30.2976 14.2832C30.4634 14.3005 30.6214 14.3161 30.7872 14.338C30.8529 14.3443 30.9248 14.3537 30.9905 14.3662C31.1062 14.3834 31.222 14.4054 31.3377 14.4273C31.4534 14.4492 31.5692 14.4711 31.6849 14.4993C31.8006 14.5275 31.9101 14.5541 32.0259 14.5823C35.2165 15.4309 38.0599 17.8641 37.8456 21.9334C37.7408 24.675 36.047 27.7047 32.8564 28.3326C32.395 28.4266 31.8773 28.5315 31.3049 28.5424C31.2955 28.5424 31.2861 28.5424 31.2767 28.5424C29.0495 28.2668 26.9475 26.8843 27.2509 24.423C27.3557 23.5743 27.8233 22.8369 28.5318 22.3969C29.3013 21.9021 30.2648 21.8238 31.2376 22.1432C31.5958 22.2701 31.9743 22.0775 32.1009 21.7252C32.2167 21.3666 32.0243 20.9768 31.6724 20.8609C30.3305 20.4037 28.9119 20.5478 27.8061 21.2414C26.7551 21.9131 26.2046 22.8885 26.0498 24.1443C25.6806 27.0346 27.8124 29.391 31.2454 29.8201C31.4112 29.8357 31.7819 29.8639 31.7819 29.8639L32.6843 29.8811L40.4731 30.1395V11.2238H17.4101V38.4034H48.8281V2H7ZM9.23811 31.129C10.8225 35.975 13.9959 40.3418 18.2969 43.2431C20.5569 44.7463 23.2314 45.8971 26.0419 46.669L25.5195 46.6533L9.50712 46.1413L9.23811 46.1304V31.1306V31.129ZM22.0115 4.47857L21.9239 4.50675C21.7143 4.58973 21.5063 4.67115 21.303 4.7604C21.2857 4.7651 21.2748 4.77606 21.2592 4.78232C19.6091 5.49317 17.9857 6.41695 16.5061 7.49731L16.2527 7.6852C15.6647 8.12048 15.1079 8.57767 14.6199 9.03487L14.5542 9.08497C14.3337 9.28382 14.1257 9.48737 13.9223 9.67995C13.7957 9.81148 13.669 9.94456 13.5423 10.0761C13.5423 10.0823 13.536 10.087 13.5313 10.0917C13.1513 10.5161 12.7884 10.9513 12.4428 11.4023C12.2113 11.6998 11.9923 12.0082 11.7765 12.3214C11.6717 12.4811 11.5669 12.6345 11.4637 12.7942C11.2604 13.1136 11.068 13.4377 10.8803 13.7681C10.7865 13.9341 10.6926 14.0985 10.6051 14.2691C10.5112 14.4335 10.4283 14.6042 10.3407 14.7764C10.2532 14.9518 10.164 15.1287 10.0827 15.3057C9.92941 15.647 9.78082 15.9836 9.64319 16.3296C9.52745 16.6099 9.41797 16.8918 9.31787 17.1783C9.28972 17.2503 9.26783 17.3223 9.24124 17.3928V4.24684H22.6073C22.4087 4.31886 22.2054 4.39558 22.0021 4.46761L22.013 4.47857H22.0115ZM31.2783 28.5409C31.1297 28.5471 30.9764 28.5471 30.82 28.5409C30.9764 28.5487 31.1281 28.5487 31.2783 28.5409ZM38.2319 27.8911L36.7805 28.0398L36.621 28.057C37.2481 27.4949 37.7877 26.8232 38.2319 26.0795V27.8911ZM38.2319 13.4706V17.2816C37.2638 15.5687 35.7185 14.2535 33.7494 13.4706H38.2319ZM19.656 13.4706H25.5962C25.3538 13.5646 25.1113 13.6695 24.8752 13.7791C24.4732 13.9669 24.0885 14.1815 23.7194 14.4226C21.9426 15.5186 20.5726 17.0264 19.6545 18.7894V13.4706H19.656ZM19.656 36.1566V29.6369C19.7546 29.8404 19.8594 30.0393 19.9688 30.2365C20.0079 30.3133 20.0517 30.3853 20.0955 30.462C20.2003 30.6436 20.3098 30.8253 20.4146 31.0022C20.4219 31.0053 20.4255 31.009 20.4255 31.0132C21.2842 32.3456 22.3774 33.5183 23.6818 34.4547C24.6546 35.1655 25.8042 35.726 27.0804 36.1566H19.6545H19.656ZM46.5869 36.1566H37.4952C40.4278 35.0997 42.9959 33.1394 44.8774 30.4135C45.5812 29.3785 46.1474 28.2825 46.5885 27.1364V36.1566H46.5869ZM46.5869 14.9064C46.2522 13.9544 45.8549 13.0447 45.3763 12.1914C44.5505 10.7212 43.523 9.38246 42.3015 8.20503C40.47 6.43731 38.2694 5.11582 35.7561 4.24527H46.5869V14.9064Z" fill="#D2C8BC"/>
<path d="M42.094 48.1108C42.6528 48.1108 43.1059 47.6572 43.1059 47.0978C43.1059 46.5383 42.6528 46.0847 42.094 46.0847C41.5351 46.0847 41.082 46.5383 41.082 47.0978C41.082 47.6572 41.5351 48.1108 42.094 48.1108Z" fill="#D2C8BC"/>
<path d="M45.2828 44.9233C44.8402 44.9233 44.4805 45.2835 44.4805 45.7266C44.4805 46.1697 44.8402 46.5298 45.2828 46.5298C45.7254 46.5298 46.0851 46.1697 46.0851 45.7266C46.0851 45.2835 45.7254 44.9233 45.2828 44.9233Z" fill="#D2C8BC"/>
<path d="M47.731 43.2212C47.4073 43.2212 47.1445 43.4842 47.1445 43.8083C47.1445 44.1325 47.4073 44.3955 47.731 44.3955C48.0548 44.3955 48.3175 44.1325 48.3175 43.8083C48.3175 43.4842 48.0548 43.2212 47.731 43.2212Z" fill="#D2C8BC"/>
</svg>
