<svg width="52" height="47" viewBox="0 0 52 47" fill="none" xmlns="http://www.w3.org/2000/svg">
<g clip-path="url(#clip0_15083_2312)">
<path d="M10.9691 18.2594C9.09066 18.6903 7.30789 16.9066 6.63999 13.9932C6.38851 12.8971 6.26938 11.7022 6.33353 10.9342L6.83954 10.6398C6.83954 11.3121 6.91387 11.8785 7.06252 12.5233C7.52781 14.5555 8.60806 15.5599 10.342 15.1626C12.7081 14.6197 12.8771 12.0669 11.4813 8.44759L12.1247 8.13384C13.3047 11.7379 14.5 12.9868 16.5302 12.5212C17.9943 12.1851 18.6093 11.1094 18.1959 9.30837C17.9556 8.2622 17.3794 7.02248 16.5995 5.80313L17.246 5.36816C18.144 6.87681 18.6205 8.03809 18.9117 9.30633C19.7404 12.9226 19.2843 15.1698 17.245 15.6384C15.7972 15.9704 14.3219 15.2024 13.1877 12.8034C13.7568 15.9134 12.7651 17.8479 10.9691 18.2594Z" fill="#250D0D"/>
<path d="M28.5034 11.7093C28.7824 10.9392 29.044 10.1619 29.2945 9.37961C28.6419 8.25093 28.1318 6.79016 27.808 4.87099C27.4883 2.97729 27.2959 1.60922 27.1116 0.159653L26.4345 -0.00537109L22.4953 4.73041C23.9635 8.81119 26.1983 13.6957 25.4256 16.877C23.709 23.9384 14.6373 27.5139 4.66157 25.0864C3.22599 24.737 1.70082 24.3255 0.170549 23.7173L0.0117188 24.3693C1.52773 25.8168 5.57485 30.1411 9.119 31.0039C16.1432 32.7132 24.2975 26.5044 26.91 16.8546C27.2114 15.077 27.8935 13.3962 28.5054 11.7093H28.5034Z" fill="#250D0D"/>
<path d="M35.076 13.1743C34.2778 13.0286 33.502 12.8096 32.7109 12.4785C31.5869 12.0089 31.091 11.3977 30.1452 10.3933C29.8927 11.1787 29.629 11.959 29.3429 12.7342C28.789 14.2378 28.2178 15.7484 27.9531 17.3345C28.7737 18.2146 29.463 18.5946 30.526 19.1691C31.5024 19.6968 32.5409 19.9688 33.6313 20.201C34.8704 20.4659 36.0188 20.5433 37.2304 20.5433L51.9986 20.528V13.2975C51.9986 13.2975 35.9069 13.3271 35.075 13.1743H35.076Z" fill="#250D0D"/>
<path d="M29.5039 35.1398L42.7723 31.9351L42.2062 34.5693L28.9062 37.7415L29.5049 35.1398H29.5039Z" fill="#250D0D"/>
<path d="M31.7891 26.2201L35.3169 22.282L39.8874 26.3729L36.3575 30.3121L31.7891 26.2201Z" fill="#250D0D"/>
<path d="M17.4297 45.911C17.8054 46.019 18.0243 46.3052 18.0243 46.619C18.0243 47.0825 17.5936 47.4156 16.8768 47.4156H15.6367V47.3473L15.7762 47.3331C15.9208 47.3188 15.9646 47.1752 15.9646 47.002V44.8984C15.9646 44.7222 15.9238 44.5847 15.7762 44.5765L15.6367 44.5684V44.491H16.9318C17.5335 44.491 17.8939 44.7915 17.8939 45.2244C17.8939 45.5005 17.7249 45.7837 17.4297 45.912V45.911ZM16.4258 44.5959V45.8845H16.8086C17.2108 45.8845 17.4032 45.6074 17.4032 45.2407C17.4032 44.874 17.1487 44.5969 16.7699 44.5969H16.4258V44.5959ZM16.8167 47.3066C17.2444 47.3066 17.5366 46.9959 17.5366 46.6241C17.5366 46.2522 17.2688 45.9986 16.8534 45.9986H16.4258V47.3076H16.8167V47.3066Z" fill="#250D0D"/>
<path d="M19.9629 44.491H20.868V44.546C20.6196 44.5908 20.532 44.7395 20.4027 44.9534L19.69 46.1147V46.9093C19.69 47.2679 19.7918 47.332 20.081 47.3595V47.4135H18.8704V47.3595C19.1565 47.333 19.2614 47.2689 19.2614 46.9093V46.2359L18.4652 44.9178C18.3278 44.6896 18.2433 44.5776 18.0977 44.547V44.492H19.2644V44.547C18.8409 44.5857 18.8623 44.7354 18.9845 44.9422L19.6218 46.018H19.6351L20.2928 44.9504C20.4394 44.71 20.4363 44.5949 19.9639 44.546V44.492L19.9629 44.491Z" fill="#250D0D"/>
<path d="M22.0469 47.2139V46.3939H22.1019C22.2678 47.1182 22.6354 47.3851 23.0039 47.3851C23.3501 47.3851 23.626 47.163 23.626 46.836C23.626 46.5803 23.4662 46.4347 23.1383 46.2798L22.6832 46.0629C22.3177 45.8897 22.0866 45.6523 22.0866 45.2734C22.0866 44.8394 22.4999 44.4595 23.1108 44.4595C23.4092 44.4595 23.7085 44.5349 23.9203 44.6398V45.4262H23.8653C23.7238 44.7773 23.4417 44.5461 23.062 44.5461C22.7239 44.5461 22.4633 44.7579 22.4633 45.0625C22.4633 45.3325 22.6089 45.4802 22.9204 45.6258L23.3898 45.8438C23.7818 46.0272 24.0139 46.2646 24.0139 46.6292C24.0139 47.1141 23.5833 47.4717 22.9846 47.4717C22.6629 47.4717 22.3269 47.3769 22.0479 47.2129L22.0469 47.2139Z" fill="#250D0D"/>
<path d="M26.7391 46.9625C26.8603 47.2426 26.9061 47.3139 27.1993 47.3577V47.4168H25.8493V47.3577C26.2361 47.3068 26.3532 47.2182 26.2402 46.9431L26.061 46.4898H24.9482L24.8036 46.8616C24.654 47.2396 24.7212 47.3068 25.1834 47.3577V47.4168H24.1602V47.3577C24.4575 47.32 24.545 47.2171 24.6998 46.8545L25.6548 44.4443H25.6731L26.7381 46.9625H26.7391ZM24.9899 46.3767H26.0152L25.5255 45.189L25.4868 45.1136L24.9899 46.3767Z" fill="#250D0D"/>
<path d="M27.4073 47.4125V47.3575C27.6455 47.3311 27.7494 47.2648 27.7494 46.9124V44.9912C27.7494 44.6387 27.6455 44.5705 27.4073 44.544V44.49H28.6799C29.3723 44.49 29.7276 44.8343 29.7276 45.2611C29.7276 45.6492 29.3906 46.0068 28.8612 46.0547L29.7439 47.2414C29.803 47.3249 29.8915 47.3535 29.9842 47.3575V47.4125H29.4537C29.3662 47.4125 29.2929 47.3698 29.244 47.2985L28.4855 46.1922C28.4315 46.1137 28.3664 46.0791 28.177 46.0781V46.9134C28.177 47.2659 28.2829 47.3311 28.5832 47.3586V47.4125H27.4062H27.4073ZM28.178 45.965H28.4763C28.9722 45.965 29.2766 45.638 29.2766 45.2458C29.2766 44.9076 29.0668 44.5684 28.5527 44.5684H28.18L28.178 45.965Z" fill="#250D0D"/>
<path d="M32.6922 46.9625C32.8134 47.2426 32.8592 47.3139 33.1524 47.3577V47.4168H31.8024V47.3577C32.1893 47.3068 32.3064 47.2182 32.1933 46.9431L32.0142 46.4898H30.9013L30.7567 46.8616C30.6071 47.2396 30.6743 47.3068 31.1365 47.3577V47.4168H30.1133V47.3577C30.4106 47.32 30.4981 47.2171 30.6529 46.8545L31.6079 44.4443H31.6262L32.6912 46.9625H32.6922ZM30.9431 46.3767H31.9683L31.4786 45.189L31.4399 45.1136L30.9431 46.3767Z" fill="#250D0D"/>
<path d="M33.3594 47.4124V47.3574L33.4989 47.3299C33.6495 47.3024 33.6872 47.2189 33.6872 47.0712V44.8464C33.6872 44.6997 33.6557 44.5999 33.4989 44.5734L33.3604 44.55V44.4868H34.4814V44.55L34.3378 44.5734C34.178 44.5989 34.1495 44.7007 34.1495 44.8464V45.8386H35.5861V44.8464C35.5861 44.7007 35.5545 44.5989 35.3977 44.5734L35.2562 44.55V44.4868H36.3741V44.55L36.2346 44.5734C36.0778 44.5999 36.0442 44.7028 36.0442 44.8464V47.0712C36.0442 47.2158 36.0849 47.3014 36.2346 47.3299L36.3741 47.3574V47.4124H35.2562V47.3574L35.3977 47.3299C35.5504 47.3024 35.5861 47.2209 35.5861 47.0712V45.9527H34.1495V47.0712C34.1495 47.2209 34.1831 47.3014 34.3378 47.3299L34.4814 47.3574V47.4124H33.3604H33.3594Z" fill="#250D0D"/>
</g>
<defs>
<clipPath id="clip0_15083_2312">
<rect width="52" height="47" fill="white"/>
</clipPath>
</defs>
</svg>
