<svg width="72" height="116" viewBox="0 0 72 116" fill="none" xmlns="http://www.w3.org/2000/svg">
<path d="M15.0313 75.9013C12.4543 76.4928 10.0086 74.0444 9.09235 70.0453C8.74735 68.5408 8.58393 66.9006 8.67192 65.8463L9.36611 65.4422C9.36611 66.365 9.46807 67.1425 9.67199 68.0276C10.3103 70.8172 11.7923 72.1959 14.1709 71.6505C17.4169 70.9052 17.6488 67.4012 15.7339 62.4331L16.6166 62.0024C18.2354 66.9495 19.8752 68.6638 22.6603 68.0248C24.6688 67.5634 25.5125 66.0868 24.9454 63.6146C24.6158 62.1786 23.8252 60.4769 22.7553 58.8031L23.6422 58.2061C24.8742 60.2769 25.5278 61.8709 25.9273 63.6118C27.0643 68.5757 26.4385 71.6603 23.6408 72.3035C21.6547 72.7594 19.6308 71.7051 18.0748 68.4121C18.8556 72.6811 17.4952 75.3364 15.0313 75.9013Z" fill="#D2C8BC"/>
<path d="M39.0865 66.9106C39.4692 65.8535 39.8282 64.7866 40.1718 63.7127C39.2765 62.1634 38.5767 60.1583 38.1325 57.5239C37.6939 54.9245 37.43 53.0466 37.1772 51.0568L36.2483 50.8303L30.8443 57.3309C32.8584 62.9324 35.9243 69.6372 34.8641 74.004C32.5092 83.6969 20.0642 88.6049 6.37893 85.2728C4.40952 84.7932 2.3172 84.2283 0.217892 83.3935L0 84.2884C2.07975 86.2754 7.63181 92.2111 12.4939 93.3954C22.13 95.7417 33.3165 87.2192 36.9006 73.9733C37.314 71.5333 38.2499 69.2261 39.0893 66.9106H39.0865Z" fill="#D2C8BC"/>
<path d="M48.1037 68.9213C47.0086 68.7214 45.9443 68.4207 44.859 67.9663C43.317 67.3217 42.6368 66.4827 41.3392 65.104C40.9928 66.1821 40.6311 67.2532 40.2386 68.3173C39.4788 70.3811 38.6952 72.4548 38.332 74.6319C39.4578 75.84 40.4034 76.3616 41.8616 77.1502C43.2011 77.8745 44.6258 78.2478 46.1217 78.5667C47.8215 78.9302 49.397 79.0365 51.0592 79.0365L71.319 79.0155V69.0905C71.319 69.0905 49.2434 69.1311 48.1023 68.9213H48.1037Z" fill="#D2C8BC"/>
<path d="M40.4605 99.0723L58.6629 94.6733L57.8863 98.2893L39.6406 102.644L40.4619 99.0723H40.4605Z" fill="#D2C8BC"/>
<path d="M43.5977 86.8291L48.4374 81.4233L54.7074 87.0388L49.8648 92.446L43.5977 86.8291Z" fill="#D2C8BC"/>
<path d="M21.1719 0V41.4157H49.8987V40.4229H49.9043V40.4173H49.8987V40.2705L44.1707 40.0831C43.8704 40.0635 43.5715 40.0538 43.2768 40.0286C38.4971 39.5616 34.1993 37.9186 30.8387 35.2926C27.027 32.3464 24.3453 27.8328 23.4653 23.0087C23.436 22.8409 23.4067 22.6745 23.3815 22.5067C23.3564 22.3389 23.3326 22.1725 23.3131 22.0047C23.3033 21.946 23.2977 21.8873 23.2935 21.8328C23.2782 21.7195 23.2642 21.6118 23.2544 21.4986C23.1315 20.3282 23.1371 19.1481 23.2698 17.9875C23.3676 17.1317 23.5296 16.2816 23.7517 15.4496C23.8997 14.9183 24.0659 14.3925 24.2629 13.8709C24.3271 13.699 24.3956 13.527 24.464 13.3592C24.7433 12.6754 25.0688 12.007 25.4361 11.3624C25.5241 11.2002 25.6177 11.0422 25.7155 10.8856C25.8091 10.729 25.9068 10.571 26.0102 10.413C26.1136 10.255 26.2211 10.0984 26.3245 9.94597C26.5354 9.64115 26.7575 9.35031 26.9879 9.06086C27.1011 8.91404 27.2184 8.77142 27.3413 8.62879C28.3037 7.49758 29.4099 6.47963 30.6474 5.61969C30.7996 5.51202 30.9575 5.40855 31.1139 5.30508C31.2717 5.20161 31.4338 5.10373 31.5958 5.00585C31.7732 4.89818 31.945 4.79471 32.1265 4.69123C32.4799 4.48988 32.8431 4.29832 33.2118 4.12073C33.399 4.03264 33.5847 3.94875 33.7719 3.86485C37.1227 2.40504 40.9037 1.99115 44.4654 2.74902C45.4473 2.93639 46.4055 3.24122 47.034 3.46214C47.731 3.72782 48.4098 4.06201 48.8512 4.30251C52.9283 6.54955 55.7525 10.8828 56.2246 15.6132C56.6813 19.6794 55.3013 23.6337 52.4268 26.4513C49.6459 29.1709 45.8244 30.4294 41.9345 29.898C39.1941 29.5289 36.6785 28.1963 35.0332 26.2345C34.3599 25.4431 33.8348 24.5622 33.4465 23.6435C33.392 23.5107 33.3389 23.3779 33.2886 23.245C33.2006 22.9989 33.121 22.7486 33.0526 22.4927C32.4729 20.4177 32.5958 18.2 33.4898 16.2368C34.948 12.8488 38.5153 10.6409 41.9778 10.9695C42.1258 10.9849 42.2669 10.9989 42.415 11.0185C42.4736 11.024 42.5379 11.0324 42.5965 11.0436C42.6999 11.059 42.8033 11.0786 42.9066 11.0982C43.01 11.1177 43.1133 11.1373 43.2167 11.1625C43.3201 11.1876 43.4178 11.2114 43.5212 11.2366C46.3705 11.9945 48.9098 14.1674 48.7185 17.8015C48.6249 20.2499 47.1122 22.9556 44.2629 23.5163C43.8508 23.6002 43.3885 23.6939 42.8773 23.7037C42.8689 23.7037 42.8605 23.7037 42.8521 23.7037C40.8632 23.4576 38.986 22.2229 39.2569 20.0248C39.3505 19.2669 39.7681 18.6083 40.4009 18.2154C41.0881 17.7736 41.9484 17.7036 42.8172 17.9889C43.1371 18.1021 43.4751 17.9302 43.5882 17.6155C43.6916 17.2953 43.5198 16.9472 43.2055 16.8437C42.0071 16.4354 40.7403 16.564 39.7528 17.1835C38.8142 17.7833 38.3225 18.6545 38.1842 19.7759C37.8546 22.3571 39.7584 24.4615 42.8242 24.8447C42.9723 24.8586 43.3033 24.8838 43.3033 24.8838L44.1092 24.8992L51.065 25.1299V8.23727H30.4686V32.51H58.5264V0H21.1719ZM23.1706 26.0136C24.5855 30.3413 27.4195 34.2411 31.2606 36.8321C33.2789 38.1745 35.6673 39.2022 38.1772 39.8916L37.7107 39.8776L23.4109 39.4203L23.1706 39.4105V26.015V26.0136ZM34.5778 2.21348L34.4996 2.23865C34.3124 2.31276 34.1267 2.38547 33.9451 2.46517C33.9297 2.46936 33.92 2.47915 33.906 2.48475C32.4324 3.11957 30.9826 3.94455 29.6613 4.90936L29.435 5.07716C28.9098 5.46588 28.4126 5.87418 27.9768 6.28248L27.9182 6.32722C27.7212 6.5048 27.5354 6.68658 27.3539 6.85857C27.2407 6.97602 27.1276 7.09488 27.0145 7.21233C27.0145 7.21793 27.0089 7.22212 27.0047 7.22632C26.6653 7.60525 26.3412 7.99397 26.0325 8.39668C25.8258 8.66235 25.6303 8.93781 25.4375 9.21747C25.3439 9.36009 25.2504 9.49712 25.1582 9.63975C24.9766 9.925 24.8048 10.2144 24.6372 10.5095C24.5534 10.6577 24.4696 10.8045 24.3914 10.9569C24.3076 11.1037 24.2335 11.2562 24.1553 11.41C24.0771 11.5666 23.9975 11.7246 23.9249 11.8826C23.788 12.1874 23.6553 12.488 23.5324 12.7971C23.429 13.0474 23.3312 13.2991 23.2418 13.5549C23.2167 13.6193 23.1972 13.6836 23.1734 13.7465V2.00653H35.11C34.9326 2.07085 34.751 2.13937 34.5694 2.20369L34.5792 2.21348H34.5778ZM42.8535 23.7023C42.7208 23.7079 42.584 23.7079 42.4443 23.7023C42.584 23.7093 42.7194 23.7093 42.8535 23.7023ZM49.0635 23.122L47.7673 23.2548L47.6248 23.2702C48.1849 22.7682 48.6668 22.1683 49.0635 21.5042V23.122ZM49.0635 10.2438V13.6472C48.1989 12.1175 46.8189 10.9429 45.0604 10.2438H49.0635ZM32.4743 10.2438H37.7792C37.5627 10.3277 37.3462 10.4214 37.1353 10.5193C36.7763 10.6871 36.4327 10.8786 36.1031 11.094C34.5164 12.0728 33.2928 13.4193 32.4729 14.9938V10.2438H32.4743ZM32.4743 30.5035V24.6811C32.5623 24.8628 32.6559 25.0404 32.7537 25.2166C32.7886 25.2851 32.8277 25.3494 32.8668 25.418C32.9604 25.5802 33.0582 25.7424 33.1518 25.9004C33.1583 25.9032 33.1615 25.9064 33.1615 25.9101C33.9283 27.1001 34.9047 28.1474 36.0695 28.9836C36.9383 29.6184 37.9649 30.119 39.1047 30.5035H32.4729H32.4743ZM56.5249 30.5035H48.4056C51.0245 29.5597 53.3179 27.809 54.9982 25.3746C55.6268 24.4503 56.1324 23.4715 56.5263 22.448V30.5035H56.5249ZM56.5249 11.526C56.226 10.6759 55.8712 9.86347 55.4438 9.10141C54.7063 7.78842 53.7887 6.5929 52.6978 5.54139C51.0622 3.96273 49.097 2.78258 46.8524 2.00514H56.5249V11.526Z" fill="#D2C8BC"/>
<path d="M52.5131 41.1792C53.0122 41.1792 53.4168 40.7742 53.4168 40.2746C53.4168 39.7749 53.0122 39.3699 52.5131 39.3699C52.014 39.3699 51.6094 39.7749 51.6094 40.2746C51.6094 40.7742 52.014 41.1792 52.5131 41.1792Z" fill="#D2C8BC"/>
<path d="M55.3611 38.3325C54.9658 38.3325 54.6445 38.6541 54.6445 39.0498C54.6445 39.4455 54.9658 39.7672 55.3611 39.7672C55.7563 39.7672 56.0776 39.4455 56.0776 39.0498C56.0776 38.6541 55.7563 38.3325 55.3611 38.3325Z" fill="#D2C8BC"/>
<path d="M57.5472 36.8125C57.2581 36.8125 57.0234 37.0474 57.0234 37.3369C57.0234 37.6263 57.2581 37.8612 57.5472 37.8612C57.8363 37.8612 58.071 37.6263 58.071 37.3369C58.071 37.0474 57.8363 36.8125 57.5472 36.8125Z" fill="#D2C8BC"/>
<path d="M23.8933 113.856C24.4087 114.005 24.709 114.398 24.709 114.828C24.709 115.464 24.1181 115.922 23.1348 115.922H21.4336V115.828L21.6249 115.808C21.8233 115.789 21.8833 115.592 21.8833 115.354V112.467C21.8833 112.225 21.8275 112.036 21.6249 112.025L21.4336 112.013V111.907H23.2103C24.0357 111.907 24.5302 112.32 24.5302 112.914C24.5302 113.293 24.2983 113.682 23.8933 113.858V113.856ZM22.5161 112.053V113.821H23.0412C23.593 113.821 23.8569 113.441 23.8569 112.938C23.8569 112.434 23.5078 112.054 22.9882 112.054H22.5161V112.053ZM23.0524 115.773C23.6391 115.773 24.0399 115.347 24.0399 114.837C24.0399 114.326 23.6726 113.978 23.1027 113.978H22.5161V115.775H23.0524V115.773Z" fill="#D2C8BC"/>
<path d="M27.3674 111.909H28.6091V111.984C28.2683 112.046 28.1482 112.25 27.9708 112.544L26.9931 114.138V115.228C26.9931 115.72 27.1328 115.808 27.5295 115.846V115.92H25.8687V115.846C26.2612 115.81 26.4051 115.722 26.4051 115.228V114.304L25.3128 112.495C25.1243 112.181 25.0083 112.028 24.8086 111.986V111.91H26.4093V111.986C25.8282 112.039 25.8575 112.244 26.0252 112.528L26.8995 114.005H26.9177L27.82 112.539C28.0211 112.209 28.0169 112.051 27.3688 111.984V111.91L27.3674 111.909Z" fill="#D2C8BC"/>
<path d="M30.2266 115.646V114.521H30.302C30.5297 115.515 31.0339 115.881 31.5395 115.881C32.0144 115.881 32.3929 115.576 32.3929 115.127C32.3929 114.776 32.1736 114.577 31.7239 114.364L31.0995 114.066C30.5981 113.828 30.281 113.503 30.281 112.982C30.281 112.387 30.8481 111.865 31.6862 111.865C32.0954 111.865 32.5061 111.969 32.7966 112.113V113.192H32.7211C32.527 112.301 32.1401 111.984 31.6191 111.984C31.1554 111.984 30.7978 112.275 30.7978 112.693C30.7978 113.064 30.9976 113.266 31.425 113.466L32.0689 113.765C32.6066 114.017 32.9251 114.343 32.9251 114.844C32.9251 115.509 32.3343 116 31.513 116C31.0716 116 30.6107 115.87 30.228 115.645L30.2266 115.646Z" fill="#D2C8BC"/>
<path d="M36.6669 115.3C36.8331 115.684 36.8959 115.782 37.2982 115.842V115.923H35.4461V115.842C35.9769 115.772 36.1375 115.651 35.9825 115.273L35.7366 114.651H34.21L34.0116 115.161C33.8063 115.68 33.8985 115.772 34.5326 115.842V115.923H33.1289V115.842C33.5368 115.79 33.6569 115.649 33.8692 115.151L35.1793 111.843H35.2045L36.6655 115.3H36.6669ZM34.2673 114.497H35.6738L35.0019 112.867L34.9489 112.763L34.2673 114.497Z" fill="#D2C8BC"/>
<path d="M37.5795 115.919V115.843C37.9064 115.807 38.0488 115.716 38.0488 115.232V112.595C38.0488 112.111 37.9064 112.018 37.5795 111.981V111.907H39.3254C40.2752 111.907 40.7627 112.38 40.7627 112.966C40.7627 113.498 40.3004 113.989 39.5741 114.055L40.785 115.684C40.8661 115.799 40.9876 115.838 41.1147 115.843V115.919H40.387C40.2669 115.919 40.1663 115.86 40.0992 115.762L39.0587 114.244C38.9846 114.136 38.8953 114.089 38.6355 114.087V115.234C38.6355 115.718 38.7807 115.807 39.1928 115.845V115.919H37.5781H37.5795ZM38.6369 113.931H39.0461C39.7263 113.931 40.1439 113.482 40.1439 112.943C40.1439 112.479 39.8562 112.013 39.1509 112.013H38.6397L38.6369 113.931Z" fill="#D2C8BC"/>
<path d="M44.8348 115.3C45.001 115.684 45.0639 115.782 45.4662 115.842V115.923H43.6141V115.842C44.1448 115.772 44.3055 115.651 44.1504 115.273L43.9046 114.651H42.378L42.1796 115.161C41.9743 115.68 42.0665 115.772 42.7006 115.842V115.923H41.2969V115.842C41.7047 115.79 41.8248 115.649 42.0371 115.151L43.3473 111.843H43.3724L44.8334 115.3H44.8348ZM42.4352 114.497H43.8417L43.1699 112.867L43.1168 112.763L42.4352 114.497Z" fill="#D2C8BC"/>
<path d="M45.7461 115.919V115.843L45.9375 115.806C46.1442 115.768 46.1958 115.653 46.1958 115.451V112.397C46.1958 112.195 46.1525 112.058 45.9375 112.022L45.7475 111.99V111.903H47.2853V111.99L47.0884 112.022C46.8691 112.057 46.83 112.197 46.83 112.397V113.759H48.8008V112.397C48.8008 112.197 48.7575 112.057 48.5424 112.022L48.3482 111.99V111.903H49.8819V111.99L49.6905 112.022C49.4754 112.058 49.4293 112.2 49.4293 112.397V115.451C49.4293 115.649 49.4852 115.767 49.6905 115.806L49.8819 115.843V115.919H48.3482V115.843L48.5424 115.806C48.7519 115.768 48.8008 115.656 48.8008 115.451V113.915H46.83V115.451C46.83 115.656 46.8761 115.767 47.0884 115.806L47.2853 115.843V115.919H45.7475H45.7461Z" fill="#D2C8BC"/>
</svg>
