<svg width="140" height="154" viewBox="0 0 140 154" fill="none" xmlns="http://www.w3.org/2000/svg">
<g clip-path="url(#clip0_15083_2272)">
<path d="M0.527344 0V154H107.372V150.307H107.392V150.287H107.372V149.739L86.0698 149.044C84.954 148.97 83.8408 148.935 82.7442 148.841C64.9673 147.105 48.9807 140.997 36.4842 131.234C22.3071 120.28 12.3302 103.495 9.05938 85.5583C8.94972 84.9382 8.84005 84.3153 8.74958 83.6924C8.6591 83.0723 8.56588 82.4494 8.4946 81.8266C8.45896 81.607 8.43977 81.3875 8.42058 81.1872C8.36574 80.7674 8.31091 80.3641 8.27527 79.9442C7.81741 75.5924 7.8366 71.2021 8.3301 66.8886C8.69474 63.7084 9.29791 60.5419 10.1204 57.455C10.6687 55.4794 11.2911 53.523 12.0204 51.5858C12.2589 50.9464 12.5139 50.3071 12.7688 49.6842C13.8107 47.1434 15.017 44.6546 16.3851 42.2592C16.7141 41.6555 17.0623 41.0711 17.4269 40.4866C17.7751 39.9021 18.1398 39.3149 18.5236 38.7305C18.9074 38.146 19.3104 37.5588 19.6915 36.9936C20.4784 35.8603 21.3009 34.782 22.159 33.7036C22.5785 33.1548 23.0172 32.6253 23.475 32.0957C27.0556 27.8892 31.1654 24.1054 35.7714 20.906C36.3389 20.5026 36.9229 20.1185 37.5068 19.7343C38.0908 19.3502 38.694 18.9852 39.2971 18.6203C39.9551 18.2169 40.5939 17.8328 41.2711 17.4486C42.5871 16.6995 43.9388 15.9861 45.3096 15.3276C46.0032 14.9983 46.6969 14.6882 47.3932 14.3754C59.8541 8.94519 73.9215 7.4086 87.1665 10.2266C90.8211 10.9208 94.3825 12.0541 96.7212 12.8772C99.3148 13.865 101.837 15.108 103.482 16.0053C118.646 24.3633 129.152 40.4729 130.907 58.0614C132.607 73.1832 127.472 87.8851 116.785 98.3615C106.443 108.473 92.2303 113.154 77.7598 111.181C67.5636 109.809 58.2118 104.854 52.0897 97.5575C49.5866 94.6133 47.6318 91.3398 46.1897 87.9208C45.9895 87.4269 45.7866 86.933 45.6057 86.4391C45.2767 85.5254 44.9861 84.5924 44.7284 83.643C42.5734 75.9271 43.0285 67.6789 46.3542 60.3828C51.7799 47.7854 65.044 39.5756 77.9243 40.7994C78.4727 40.8543 79.0018 40.9092 79.5501 40.9833C79.7695 41.0025 80.008 41.0381 80.2273 41.0738C80.6112 41.1287 80.995 41.2028 81.3788 41.2769C81.7627 41.3482 82.1465 41.4223 82.5303 41.5156C82.9142 41.6061 83.2788 41.6994 83.6626 41.79C94.2591 44.6052 103.704 52.6888 102.991 66.1999C102.643 75.307 97.0173 85.3635 86.4207 87.4489C84.8854 87.7589 83.1691 88.1074 81.2692 88.1431C81.239 88.1431 81.2089 88.1431 81.1787 88.1431C73.779 87.2294 66.7987 82.6388 67.8049 74.4646C68.1531 71.6494 69.7049 69.199 72.0627 67.7365C74.6207 66.0902 77.8174 65.835 81.0526 66.8941C82.2397 67.3139 83.5009 66.6746 83.9203 65.5057C84.3042 64.3176 83.6654 63.017 82.4947 62.6356C78.0368 61.1182 73.3238 61.5929 69.65 63.8978C66.1599 66.1286 64.3285 69.3691 63.8185 73.5372C62.5957 83.1382 69.6747 90.9611 81.0745 92.3879C81.6228 92.4428 82.8593 92.5334 82.8593 92.5334L85.8587 92.5882L111.729 93.4471V30.6277H35.1106V120.884H139.469V0H0.527344ZM7.96272 96.7288C13.224 112.819 23.7656 127.321 38.0524 136.957C45.5618 141.951 54.442 145.771 63.7774 148.331L62.0419 148.276L8.8565 146.575L7.95998 146.539V96.7288H7.96272ZM50.3844 8.22903L50.091 8.32232C49.3974 8.59671 48.7038 8.87111 48.0266 9.16471C47.9717 9.18392 47.9361 9.21959 47.8813 9.23879C42.4007 11.5986 37.0106 14.669 32.0948 18.2526L31.2531 18.8755C29.2983 20.3188 27.4532 21.8361 25.8274 23.3535L25.608 23.5182C24.8787 24.1767 24.1824 24.8545 23.5079 25.4938C23.0884 25.9328 22.6662 26.3719 22.2468 26.8109C22.2468 26.8301 22.2276 26.8466 22.2111 26.8658C20.95 28.2734 19.7436 29.7194 18.5949 31.2176C17.8272 32.2054 17.0979 33.2289 16.3851 34.2716C16.0369 34.8012 15.6915 35.3143 15.3433 35.8439C14.6661 36.9058 14.0273 37.9841 13.4077 39.0817C13.0978 39.6305 12.7853 40.1793 12.4947 40.7473C12.1849 41.2961 11.9107 41.8613 11.6173 42.4293C11.324 43.0138 11.0334 43.601 10.7592 44.1854C10.2465 45.3187 9.75302 46.4354 9.29791 47.5851C8.91407 48.5181 8.54943 49.451 8.22044 50.4004C8.12996 50.6391 8.05594 50.8751 7.96546 51.1138V7.46073H52.3611C51.7031 7.69945 51.0287 7.95464 50.3515 8.19061L50.3871 8.22628L50.3844 8.22903ZM104.263 85.9781L99.4409 86.472L98.9117 86.5269C100.995 84.661 102.786 82.4302 104.263 79.9607V85.9754V85.9781ZM104.263 38.0884V50.7406C101.047 45.0552 95.9151 40.6842 89.3735 38.0884H104.263ZM42.5652 38.0884H62.2969C61.4936 38.3985 60.6875 38.747 59.9034 39.1119C58.571 39.732 57.2906 40.4454 56.0678 41.2522C50.1678 44.8906 45.6166 49.901 42.5652 55.7538V38.0912V38.0884ZM42.5652 113.426V91.776C42.8942 92.4538 43.2396 93.1123 43.607 93.7709C43.7359 94.026 43.8812 94.2648 44.0265 94.52C44.3747 95.1236 44.7393 95.7273 45.0875 96.3117C45.1113 96.3245 45.1231 96.3364 45.1231 96.3474C47.9717 100.773 51.6099 104.667 55.939 107.776C59.1741 110.136 62.9905 111.999 67.2291 113.426H42.5652ZM132.017 113.426H101.818C111.556 109.913 120.088 103.405 126.337 94.3526C128.675 90.9144 130.556 87.276 132.017 83.4729V113.426ZM132.017 42.8601C130.904 39.6964 129.588 36.6808 127.998 33.8463C125.256 28.9649 121.84 24.5197 117.785 20.6069C111.702 14.7376 104.392 10.3501 96.044 7.46073H132.017V42.8601Z" fill="#34181E"/>
<path d="M117.109 153.122C118.963 153.122 120.467 151.616 120.467 149.758C120.467 147.9 118.963 146.394 117.109 146.394C115.254 146.394 113.75 147.9 113.75 149.758C113.75 151.616 115.254 153.122 117.109 153.122Z" fill="#34181E"/>
<path d="M127.708 142.533C126.238 142.533 125.043 143.73 125.043 145.2C125.043 146.671 126.236 147.865 127.708 147.865C129.18 147.865 130.373 146.671 130.373 145.2C130.373 143.73 129.18 142.533 127.708 142.533Z" fill="#34181E"/>
<path d="M135.837 136.883C134.762 136.883 133.891 137.759 133.891 138.834C133.891 139.91 134.762 140.782 135.837 140.782C136.912 140.782 137.784 139.91 137.784 138.834C137.784 137.759 136.912 136.883 135.837 136.883Z" fill="#34181E"/>
</g>
<defs>
<clipPath id="clip0_15083_2272">
<rect width="140" height="154" fill="white"/>
</clipPath>
</defs>
</svg>
