<svg width="10" height="8" viewBox="0 0 10 8" fill="none" xmlns="http://www.w3.org/2000/svg">
<path d="M0.8515 7.27763C0.611167 7.27763 0.409167 7.21587 0.2455 7.09237C0.0818333 6.969 0 6.81669 0 6.63544C0 6.45431 0.0818333 6.30312 0.2455 6.18187C0.409167 6.06062 0.611167 6 0.8515 6H8.25C8.49033 6 8.69233 6.06175 8.856 6.18525C9.01967 6.30862 9.1015 6.46094 9.1015 6.64219C9.1015 6.82331 9.01967 6.9745 8.856 7.09575C8.69233 7.217 8.49033 7.27763 8.25 7.27763H0.8515ZM0.8515 1.27763C0.611167 1.27763 0.409167 1.21588 0.2455 1.09238C0.0818333 0.969 0 0.816688 0 0.635438C0 0.454313 0.0818333 0.303125 0.2455 0.181875C0.409167 0.0606252 0.611167 0 0.8515 0H8.25C8.49033 0 8.69233 0.06175 8.856 0.18525C9.01967 0.308625 9.1015 0.460937 9.1015 0.642187C9.1015 0.823312 9.01967 0.9745 8.856 1.09575C8.69233 1.217 8.49033 1.27763 8.25 1.27763H0.8515Z" fill="#231010"/>
</svg>
