<svg width="31" height="24" viewBox="0 0 31 24" fill="none" xmlns="http://www.w3.org/2000/svg">
<path d="M28.0907 5.60409L28.1761 6.09673L28.2327 6.08692L28.2856 6.06453L28.0907 5.60409ZM17.5033 10.8002L17.9774 10.6414L17.5033 10.8002ZM17.5033 2.77678L17.5671 2.28086L17.4014 2.25957L17.2562 2.34211L17.5033 2.77678ZM0.887025 12.2229L1.13413 12.6576H1.13413L0.887025 12.2229ZM0.634478 13.3185L1.04639 13.0351H1.04639L0.634478 13.3185ZM7.53588 23.3487L7.12397 23.6321H7.12397L7.53588 23.3487ZM7.90865 23.4569L7.69874 23.0031L7.69873 23.0031L7.90865 23.4569ZM23.4098 14.6209L22.9469 14.432V14.432L23.4098 14.6209ZM24.9831 8.84099C24.9983 8.56527 24.7871 8.32942 24.5114 8.31422C24.2356 8.29901 23.9998 8.5102 23.9846 8.78592L24.4838 8.81346L24.9831 8.84099ZM28.2441 0.484375L28.1261 0.970244C29.5457 1.3151 30.0316 2.11068 29.9983 2.82021C29.9625 3.5846 29.3228 4.5396 27.8958 5.14364L28.0907 5.60409L28.2856 6.06453C29.9274 5.36954 30.9372 4.14675 30.9972 2.86708C31.0598 1.53255 30.0881 0.417782 28.3622 -0.0014939L28.2441 0.484375ZM28.0907 5.60409L28.0052 5.11144C26.2028 5.4241 24.6392 5.71825 23.3028 6.01113L23.4098 6.49954L23.5169 6.98795C24.8327 6.69957 26.3801 6.40829 28.1761 6.09673L28.0907 5.60409ZM23.4098 6.49954L23.3028 6.01113C22.015 6.29339 20.9337 6.54895 20.0531 6.81392C19.1776 7.07734 18.4655 7.35991 17.9348 7.70973C17.3928 8.06705 17.0133 8.51304 16.8621 9.09777C16.7153 9.66498 16.8039 10.2865 17.0292 10.9591L17.5033 10.8002L17.9774 10.6414C17.7803 10.0531 17.7527 9.6476 17.8302 9.34825C17.9031 9.06642 18.0882 8.80632 18.4852 8.54465C18.8935 8.27549 19.4948 8.02619 20.3412 7.77151C21.1825 7.51838 22.2317 7.26961 23.5169 6.98795L23.4098 6.49954ZM17.5033 10.8002L17.0292 10.9591C17.2418 11.5935 17.7002 12.0465 18.3154 12.2175C18.9153 12.3842 19.5977 12.2659 20.2621 11.9116C21.5886 11.2043 22.963 9.50505 23.8856 6.65345L23.4098 6.49954L22.9341 6.34563C22.0557 9.06074 20.8043 10.4892 19.7916 11.0293C19.2863 11.2987 18.8708 11.3339 18.5832 11.254C18.311 11.1783 18.0924 10.9843 17.9774 10.6414L17.5033 10.8002ZM23.4098 6.49954C23.8825 6.66261 23.8825 6.66253 23.8826 6.66246C23.8826 6.66242 23.8826 6.66234 23.8826 6.66228C23.8827 6.66215 23.8827 6.662 23.8828 6.66183C23.8829 6.66149 23.883 6.66107 23.8832 6.66057C23.8835 6.65958 23.884 6.65827 23.8845 6.65665C23.8856 6.65343 23.8871 6.64897 23.889 6.64333C23.8928 6.63207 23.8981 6.61609 23.9046 6.59584C23.9177 6.55537 23.9358 6.49766 23.9569 6.42623C23.999 6.28376 24.0537 6.08463 24.1038 5.85731C24.2001 5.42146 24.2966 4.81131 24.2096 4.29793L23.7166 4.38147L23.2236 4.46501C23.2763 4.7757 23.2194 5.22458 23.1274 5.64175C23.0834 5.84094 23.0352 6.01681 22.9979 6.14273C22.9794 6.20548 22.9637 6.25531 22.9529 6.28882C22.9475 6.30556 22.9433 6.31819 22.9406 6.32628C22.9393 6.33033 22.9383 6.33323 22.9377 6.33495C22.9374 6.33581 22.9372 6.33637 22.9371 6.33663C22.9371 6.33676 22.9371 6.33681 22.9371 6.33678C22.9371 6.33677 22.9371 6.33674 22.9371 6.33669C22.9371 6.33666 22.9371 6.33661 22.9371 6.3366C22.9372 6.33654 22.9372 6.33647 23.4098 6.49954ZM23.7166 4.38147L24.2096 4.29793C24.1765 4.10246 24.066 3.96063 23.9733 3.8701C23.8779 3.77681 23.7642 3.70127 23.6533 3.63938C23.4312 3.5153 23.1459 3.40531 22.8397 3.30701C22.2219 3.10871 21.4263 2.92942 20.6529 2.77927C19.8756 2.62837 19.1046 2.50387 18.529 2.4172C18.2409 2.37382 18.001 2.33982 17.8329 2.31663C17.7489 2.30503 17.6828 2.29613 17.6375 2.29011C17.6148 2.2871 17.5974 2.28481 17.5856 2.28326C17.5796 2.28249 17.5751 2.2819 17.572 2.2815C17.5704 2.2813 17.5693 2.28114 17.5684 2.28104C17.568 2.28098 17.5677 2.28094 17.5675 2.28091C17.5674 2.2809 17.5673 2.28089 17.5672 2.28088C17.5671 2.28087 17.5671 2.28086 17.5033 2.77678C17.4396 3.2727 17.4396 3.2727 17.4396 3.2727C17.4396 3.27271 17.4397 3.27271 17.4398 3.27272C17.4399 3.27274 17.4401 3.27277 17.4405 3.27281C17.4411 3.2729 17.4421 3.27303 17.4435 3.27321C17.4462 3.27356 17.4504 3.27411 17.456 3.27483C17.4671 3.27629 17.4838 3.27848 17.5057 3.28139C17.5494 3.28721 17.6139 3.29588 17.6962 3.30724C17.8609 3.32996 18.0966 3.36338 18.3801 3.40606C18.9476 3.49151 19.7037 3.61367 20.4623 3.76094C21.2247 3.90895 21.9738 4.07933 22.5341 4.25916C22.8169 4.34993 23.0291 4.43612 23.1658 4.51246C23.2344 4.55078 23.2654 4.57651 23.2743 4.58519C23.286 4.59663 23.2393 4.55747 23.2236 4.46501L23.7166 4.38147ZM17.5033 2.77678L17.2562 2.34211L0.639922 11.7882L0.887025 12.2229L1.13413 12.6576L17.7504 3.21145L17.5033 2.77678ZM0.634478 13.3185L0.222565 13.6019L7.12397 23.6321L7.53588 23.3487L7.9478 23.0653L1.04639 13.0351L0.634478 13.3185ZM7.90865 23.4569L8.11857 23.9107C9.05519 23.4774 12.7373 21.7595 16.289 19.9003C18.0637 18.9714 19.8152 18.0023 21.1777 17.1376C21.8581 16.7058 22.4519 16.2935 22.9061 15.9199C23.1332 15.733 23.333 15.5498 23.4934 15.373C23.6496 15.2009 23.7906 15.0112 23.8728 14.8097L23.4098 14.6209L22.9469 14.432C22.9281 14.4782 22.8742 14.5673 22.7529 14.701C22.6359 14.8299 22.4754 14.9793 22.2709 15.1476C21.8618 15.484 21.3066 15.8714 20.6419 16.2933C19.3142 17.1359 17.5914 18.0899 15.8253 19.0144C12.2956 20.862 8.63109 22.5718 7.69874 23.0031L7.90865 23.4569ZM23.4098 14.6209L23.8728 14.8097C24.3338 13.6795 24.6086 12.1747 24.7692 10.9827C24.8502 10.3807 24.9036 9.84691 24.9367 9.46344C24.9533 9.27157 24.9648 9.11699 24.9722 9.0099C24.9759 8.95635 24.9786 8.91465 24.9804 8.88608C24.9813 8.8718 24.9819 8.86079 24.9824 8.85322C24.9826 8.84944 24.9827 8.84651 24.9829 8.84447C24.9829 8.84345 24.983 8.84265 24.983 8.84207C24.983 8.84178 24.983 8.84154 24.983 8.84136C24.983 8.84127 24.9831 8.84118 24.9831 8.84114C24.9831 8.84106 24.9831 8.84099 24.4838 8.81346C23.9846 8.78592 23.9846 8.78588 23.9846 8.78586C23.9846 8.78587 23.9846 8.78587 23.9846 8.78589C23.9846 8.78593 23.9846 8.78603 23.9846 8.78619C23.9845 8.7865 23.9845 8.78703 23.9845 8.78778C23.9844 8.78928 23.9843 8.79166 23.9841 8.79488C23.9837 8.80134 23.9831 8.81121 23.9823 8.82433C23.9807 8.85058 23.9781 8.88983 23.9746 8.94083C23.9675 9.04284 23.9565 9.19174 23.9404 9.37741C23.9083 9.749 23.8566 10.2665 23.7781 10.8493C23.6195 12.0269 23.3573 13.4258 22.9469 14.432L23.4098 14.6209ZM7.53588 23.3487L7.12397 23.6321C7.33576 23.9399 7.74505 24.0835 8.11858 23.9107L7.90865 23.4569L7.69873 23.0031C7.74352 22.9824 7.79689 22.9786 7.84562 22.9931C7.89277 23.0071 7.92724 23.0354 7.9478 23.0653L7.53588 23.3487ZM0.887025 12.2229L0.639922 11.7882C-0.00357169 12.154 -0.197635 12.9912 0.222565 13.6019L0.634478 13.3185L1.04639 13.0351C0.959464 12.9087 0.998511 12.7346 1.13413 12.6576L0.887025 12.2229Z" fill="#6C3E24"/>
</svg>
