<svg width="19" height="19" viewBox="0 0 19 19" fill="none" xmlns="http://www.w3.org/2000/svg">
<path d="M16.7381 0H2.2619C1.01469 0 0 1.01469 0 2.2619V16.7381C0 17.9853 1.01469 19 2.2619 19H16.7381C17.9853 19 19 17.9853 19 16.7381V2.2619C19 1.01469 17.9853 0 16.7381 0ZM14.9313 8.28898C14.8286 8.29848 14.7245 8.30481 14.6191 8.30481C13.4325 8.30481 12.3898 7.69455 11.7832 6.77214C11.7832 9.19193 11.7832 11.9451 11.7832 11.9913C11.7832 14.1215 10.056 15.8487 7.92571 15.8487C5.79545 15.8487 4.06826 14.1215 4.06826 11.9913C4.06826 9.861 5.79545 8.13381 7.92571 8.13381C8.00624 8.13381 8.08495 8.14105 8.16412 8.14602V10.0469C8.08495 10.0374 8.00714 10.023 7.92571 10.023C6.83819 10.023 5.95695 10.9042 5.95695 11.9917C5.95695 13.0792 6.83819 13.9605 7.92571 13.9605C9.01324 13.9605 9.97364 13.1037 9.97364 12.0161C9.97364 11.9732 9.99264 3.15219 9.99264 3.15219H11.8094C11.9804 4.77669 13.2919 6.05874 14.9313 6.17636V8.28898Z" fill="#D2C8BC"/>
</svg>
