<svg width="24" height="24" viewBox="0 0 24 24" fill="none" xmlns="http://www.w3.org/2000/svg">
<path d="M17.2284 23.1746C16.9959 23.1746 16.7946 23.0912 16.6246 22.9244C16.4548 22.7575 16.3699 22.556 16.3699 22.3196C16.3699 22.0818 16.4517 21.881 16.6154 21.7171C16.779 21.5533 16.983 21.4714 17.2274 21.4714C18.4234 21.4714 19.4307 21.0589 20.2494 20.2339C21.068 19.4089 21.4774 18.4047 21.4774 17.2214C21.4774 16.9784 21.5591 16.7767 21.7226 16.6164C21.886 16.456 22.0834 16.3759 22.3149 16.3759C22.5482 16.3759 22.7499 16.4584 22.9199 16.6234C23.0897 16.7884 23.1746 16.9877 23.1746 17.2214C23.1746 18.8777 22.5948 20.284 21.4351 21.4404C20.2755 22.5965 18.8732 23.1746 17.2284 23.1746ZM1.67263 7.65788C1.43746 7.65788 1.23788 7.57296 1.07388 7.40313C0.910042 7.23313 0.828125 7.03221 0.828125 6.80038C0.828125 5.15238 1.40804 3.74496 2.56788 2.57812C3.72771 1.41146 5.13221 0.828125 6.78138 0.828125C7.02204 0.828125 7.22729 0.913042 7.39712 1.08288C7.56696 1.25288 7.65187 1.45454 7.65187 1.68788C7.65187 1.92138 7.57171 2.11929 7.41137 2.28163C7.25104 2.44413 7.04938 2.52538 6.80638 2.52538C5.63071 2.52538 4.62429 2.93888 3.78712 3.76588C2.94996 4.59288 2.53137 5.59604 2.53137 6.77538C2.53137 7.02671 2.44829 7.23663 2.28213 7.40513C2.11613 7.57363 1.91296 7.65788 1.67263 7.65788ZM18.8851 4.66387C19.0471 4.82554 19.1271 5.01354 19.1251 5.22787C19.1231 5.44204 19.0431 5.63013 18.8851 5.79213L12.6416 12.0296C12.4796 12.1876 12.2898 12.2641 12.0721 12.2591C11.8546 12.2541 11.6685 12.1702 11.5139 12.0074C11.3519 11.8495 11.2709 11.6622 11.2709 11.4454C11.2709 11.2284 11.3525 11.0383 11.5159 10.8751L17.7514 4.66438C17.9134 4.50238 18.1023 4.42137 18.3181 4.42137C18.5341 4.42137 18.7231 4.50221 18.8851 4.66387ZM20.7911 7.98537C20.953 8.14537 21.0339 8.33229 21.0339 8.54612C21.0339 8.76012 20.953 8.94812 20.7911 9.11012L15.2536 14.6476C15.0916 14.8096 14.9036 14.8865 14.6896 14.8781C14.4758 14.8698 14.2879 14.7859 14.1259 14.6264C13.9639 14.4582 13.8839 14.267 13.8859 14.0529C13.8879 13.8389 13.9699 13.6509 14.1319 13.4889L19.6384 7.98237C19.7974 7.82437 19.9888 7.74538 20.2126 7.74538C20.4363 7.74538 20.6291 7.82537 20.7911 7.98537ZM4.72688 19.2176C3.18238 17.6731 2.40096 15.8206 2.38262 13.6601C2.36429 11.4996 3.12546 9.64904 4.66612 8.10838L7.24487 5.52962C7.41654 5.35962 7.61687 5.27462 7.84587 5.27462C8.07487 5.27462 8.27437 5.35962 8.44438 5.52962L8.86763 5.95312C9.08896 6.17329 9.26679 6.43063 9.40112 6.72513C9.53529 7.01946 9.60871 7.29721 9.62138 7.55838L13.7084 3.45237C13.8715 3.29054 14.064 3.20963 14.2856 3.20963C14.5073 3.20963 14.6991 3.28962 14.8611 3.44962C15.0231 3.60962 15.1041 3.80154 15.1041 4.02538C15.1041 4.24921 15.0231 4.44246 14.8611 4.60513L9.81612 9.64437L8.28662 11.1856L8.85313 11.7459C9.56096 12.4577 9.90637 13.3101 9.88937 14.3031C9.87237 15.2961 9.50712 16.1494 8.79362 16.8629L8.77087 16.8856C8.61004 17.0476 8.42138 17.1245 8.20488 17.1161C7.98838 17.1078 7.80113 17.0268 7.64313 16.8731C7.48129 16.7013 7.40037 16.5069 7.40037 16.2899C7.40037 16.0729 7.48129 15.8872 7.64313 15.7329L7.67413 15.7019C8.07896 15.2972 8.28154 14.8227 8.28188 14.2784C8.28221 13.7339 8.08837 13.2676 7.70037 12.8796L6.60313 11.7764C6.42913 11.605 6.34212 11.4016 6.34212 11.1661C6.34212 10.9306 6.42913 10.7279 6.60313 10.5579L7.85962 9.32038C8.13896 9.03704 8.27663 8.68587 8.27262 8.26687C8.26863 7.84787 8.12496 7.49671 7.84162 7.21337L5.79962 9.26113C4.57512 10.4818 3.97296 11.9481 3.99312 13.6601C4.01346 15.3721 4.63596 16.8404 5.86062 18.0649C7.09396 19.2982 8.56896 19.9274 10.2856 19.9524C12.0023 19.9774 13.4705 19.38 14.6904 18.1604L20.7464 12.1101C20.9104 11.9481 21.103 11.8671 21.3244 11.8671C21.5457 11.8671 21.7363 11.9468 21.8961 12.1061C22.0561 12.2655 22.1361 12.4532 22.1361 12.6694C22.1361 12.8855 22.0571 13.075 21.8991 13.2379L15.8504 19.2866C14.3097 20.8273 12.4568 21.5871 10.2916 21.5661C8.12646 21.5451 6.27154 20.7623 4.72688 19.2176Z" fill="#998273"/>
</svg>
