<svg width="31" height="22" viewBox="0 0 31 22" fill="none" xmlns="http://www.w3.org/2000/svg">
<path d="M14.4039 13.0319C10.1854 4.24705 8.26352 12.5108 14.5542 17.718C14.6325 17.7828 14.7391 17.8045 14.8322 17.7645C18.9421 15.999 20.4807 1.39226 14.9646 13.0234C14.8553 13.2538 14.5143 13.2617 14.4039 13.0319Z" fill="#6C3E24"/>
<path d="M14.5542 17.718L14.873 17.3329V17.3329L14.5542 17.718ZM14.4039 13.0319L14.8547 12.8155V12.8155L14.4039 13.0319ZM14.8322 17.7645L14.6348 17.3051V17.3051L14.8322 17.7645ZM14.9646 13.0234L14.5128 12.8092V12.8092L14.9646 13.0234ZM11.5966 4.32973C11.6292 4.60394 11.8779 4.79983 12.1521 4.76726C12.4263 4.73469 12.6222 4.48599 12.5896 4.21178L12.0931 4.27075L11.5966 4.32973ZM14.0993 0.564613L14.0112 1.05679L14.0993 0.564613ZM15.7008 2.14887L16.2002 2.12601V2.12601L15.7008 2.14887ZM14.7112 4.80992L14.2962 4.53112V4.53112L14.7112 4.80992ZM13.9609 8.0158C13.9609 8.29194 14.1848 8.5158 14.4609 8.5158C14.7371 8.5158 14.9609 8.29194 14.9609 8.0158H14.4609H13.9609ZM30.052 19.1452L30.387 18.7741V18.7741L30.052 19.1452ZM0.875085 19.2163L0.512761 18.8717H0.512761L0.875085 19.2163ZM14.5542 17.718L14.873 17.3329C13.3598 16.0803 12.3453 14.6477 11.7368 13.3424C11.1218 12.0232 10.9403 10.8767 11.0335 10.1957C11.0817 9.84317 11.1876 9.71761 11.2272 9.68961C11.2381 9.68194 11.2503 9.6755 11.2814 9.67681C11.3201 9.67843 11.3974 9.69382 11.5182 9.76165C11.7662 9.90099 12.1125 10.2137 12.5382 10.7934C12.9585 11.3658 13.4348 12.1687 13.9532 13.2483L14.4039 13.0319L14.8547 12.8155C14.3185 11.6989 13.8119 10.8383 13.3442 10.2015C12.8819 9.57198 12.4351 9.12976 12.008 8.88981C11.5712 8.6444 11.0719 8.57532 10.6507 8.87256C10.2743 9.13815 10.1052 9.60332 10.0427 10.0602C9.91443 10.9979 10.1683 12.3446 10.8304 13.7649C11.499 15.199 12.6032 16.7521 14.2354 18.1032L14.5542 17.718ZM14.8322 17.7645L15.0295 18.2239C15.6488 17.9579 16.1848 17.4671 16.6387 16.8839C17.0953 16.2971 17.4904 15.589 17.8196 14.8457C18.4765 13.3627 18.8968 11.6811 19.0063 10.4132C19.0599 9.79252 19.0453 9.20762 18.9045 8.78771C18.8344 8.57865 18.7083 8.33561 18.4681 8.18773C18.1994 8.02225 17.9036 8.04361 17.655 8.14818C17.4226 8.24599 17.2019 8.42512 16.9916 8.64496C16.7762 8.87015 16.5449 9.16665 16.2963 9.53623C15.799 10.2755 15.2076 11.3442 14.5128 12.8092L14.9646 13.0234L15.4164 13.2377C16.1006 11.7949 16.6678 10.7757 17.1261 10.0944C17.3553 9.75369 17.5511 9.50672 17.7142 9.33618C17.8825 9.16029 17.9917 9.09143 18.0429 9.06991C18.078 9.05514 18.0194 9.08582 17.9438 9.03924C17.8967 9.01026 17.9195 8.9957 17.9564 9.1056C18.0295 9.32363 18.0608 9.73864 18.01 10.3272C17.9106 11.4777 17.5204 13.0519 16.9053 14.4407C16.5985 15.1334 16.2422 15.7652 15.8495 16.2697C15.4541 16.7778 15.0431 17.1297 14.6348 17.3051L14.8322 17.7645ZM14.4039 13.0319L13.9532 13.2483C14.2562 13.8792 15.1374 13.8259 15.4164 13.2377L14.9646 13.0234L14.5128 12.8092C14.5497 12.7314 14.6234 12.7013 14.6756 12.7003C14.7296 12.6993 14.8134 12.7295 14.8547 12.8155L14.4039 13.0319ZM14.5542 17.718L14.2354 18.1032C14.4382 18.271 14.7415 18.3476 15.0295 18.2239L14.8322 17.7645L14.6348 17.3051C14.7368 17.2613 14.8268 17.2946 14.873 17.3329L14.5542 17.718ZM12.0931 4.27075L12.5896 4.21178C12.5024 3.47725 12.4632 2.87957 12.4791 2.40142C12.4952 1.91766 12.5669 1.59715 12.6698 1.39098C12.762 1.20638 12.881 1.10693 13.054 1.0519C13.2515 0.989081 13.5535 0.974846 14.0112 1.05679L14.0993 0.564613L14.1874 0.0724387C13.6571 -0.0225039 13.1701 -0.0343899 12.7509 0.098933C12.3073 0.240037 11.9818 0.530515 11.7752 0.944189C11.5794 1.3363 11.4978 1.82241 11.4797 2.36819C11.4613 2.91958 11.5069 3.57435 11.5966 4.32973L12.0931 4.27075ZM15.7008 2.14887L15.2013 2.17173C15.2279 2.75285 15.0132 3.46368 14.2962 4.53112L14.7112 4.80992L15.1263 5.08873C15.8956 3.94349 16.241 3.01636 16.2002 2.12601L15.7008 2.14887ZM14.4609 5.60875H13.9609V8.0158H14.4609H14.9609V5.60875H14.4609ZM14.7112 4.80992L14.2962 4.53112C14.0869 4.84269 13.9609 5.21557 13.9609 5.60875H14.4609H14.9609C14.9609 5.43057 15.0182 5.24957 15.1263 5.08873L14.7112 4.80992ZM14.0993 0.564613L14.0112 1.05679C14.6869 1.17778 15.1774 1.64926 15.2013 2.17173L15.7008 2.14887L16.2002 2.12601C16.1475 0.974578 15.1412 0.243204 14.1874 0.0724387L14.0993 0.564613ZM21.0451 11.0123L20.71 11.3834L29.7169 19.5163L30.052 19.1452L30.387 18.7741L21.3802 10.6412L21.0451 11.0123ZM29.1657 21.5V21H1.83428V21.5V22H29.1657V21.5ZM0.875085 19.2163L1.23741 19.5608L8.68295 11.7314L8.32063 11.3869L7.95831 11.0423L0.512761 18.8717L0.875085 19.2163ZM1.83428 21.5V21C1.11229 21 0.716795 20.1083 1.23741 19.5608L0.875085 19.2163L0.512761 18.8717C-0.595683 20.0373 0.207712 22 1.83428 22V21.5ZM30.052 19.1452L29.7169 19.5163C30.3002 20.043 29.9178 21 29.1657 21V21.5V22C30.8604 22 31.6299 19.8964 30.387 18.7741L30.052 19.1452Z" fill="#6C3E24"/>
</svg>
